<?xml version="1.0" encoding="UTF-8"?>
<svg xmlns="http://www.w3.org/2000/svg" xmlns:xlink="http://www.w3.org/1999/xlink" width="15pt" height="15pt" viewBox="0 0 15 15" version="1.1">
<g id="surface1">
<path style=" stroke:none;fill-rule:nonzero;fill:rgb(0%,0%,0%);fill-opacity:1;" d="M 4.226562 6.273438 C 4.226562 6.457031 4.246094 6.605469 4.28125 6.714844 C 4.320312 6.828125 4.371094 6.945312 4.441406 7.078125 C 4.46875 7.117188 4.476562 7.15625 4.476562 7.191406 C 4.476562 7.242188 4.445312 7.289062 4.382812 7.339844 L 4.066406 7.550781 C 4.03125 7.578125 3.984375 7.59375 3.9375 7.59375 C 3.886719 7.59375 3.835938 7.570312 3.789062 7.523438 C 3.722656 7.453125 3.660156 7.375 3.609375 7.289062 C 3.554688 7.195312 3.5 7.097656 3.453125 6.996094 C 3.066406 7.453125 2.574219 7.683594 1.988281 7.683594 C 1.566406 7.683594 1.234375 7.566406 0.988281 7.324219 C 0.746094 7.085938 0.621094 6.765625 0.621094 6.367188 C 0.621094 5.945312 0.769531 5.597656 1.074219 5.339844 C 1.378906 5.082031 1.78125 4.949219 2.296875 4.949219 C 2.464844 4.949219 2.640625 4.964844 2.824219 4.992188 C 3.011719 5.015625 3.199219 5.054688 3.398438 5.101562 L 3.398438 4.734375 C 3.398438 4.355469 3.320312 4.09375 3.164062 3.9375 C 3.003906 3.78125 2.734375 3.707031 2.351562 3.707031 C 2.175781 3.707031 1.996094 3.726562 1.8125 3.773438 C 1.628906 3.816406 1.449219 3.875 1.273438 3.941406 C 1.21875 3.96875 1.160156 3.992188 1.097656 4.007812 C 1.074219 4.015625 1.046875 4.019531 1.019531 4.023438 C 0.949219 4.023438 0.914062 3.972656 0.914062 3.867188 L 0.914062 3.625 C 0.914062 3.542969 0.925781 3.484375 0.949219 3.449219 C 0.988281 3.402344 1.035156 3.367188 1.089844 3.34375 C 1.265625 3.253906 1.472656 3.179688 1.71875 3.121094 C 1.972656 3.054688 2.234375 3.023438 2.496094 3.023438 C 3.089844 3.023438 3.523438 3.160156 3.804688 3.429688 C 4.078125 3.699219 4.21875 4.109375 4.21875 4.65625 L 4.21875 6.273438 Z M 2.203125 7.03125 C 2.367188 7.03125 2.535156 7 2.714844 6.941406 C 2.894531 6.882812 3.054688 6.773438 3.1875 6.621094 C 3.269531 6.527344 3.328125 6.421875 3.359375 6.300781 C 3.390625 6.183594 3.410156 6.039062 3.410156 5.867188 L 3.410156 5.660156 C 3.257812 5.621094 3.105469 5.59375 2.949219 5.574219 C 2.792969 5.554688 2.636719 5.542969 2.480469 5.542969 C 2.148438 5.542969 1.902344 5.609375 1.738281 5.746094 C 1.574219 5.878906 1.492188 6.066406 1.492188 6.316406 C 1.492188 6.550781 1.554688 6.726562 1.679688 6.847656 C 1.796875 6.972656 1.972656 7.03125 2.203125 7.03125 Z M 6.207031 7.570312 C 6.117188 7.570312 6.058594 7.554688 6.019531 7.519531 C 5.976562 7.488281 5.941406 7.421875 5.914062 7.324219 L 4.742188 3.46875 C 4.71875 3.402344 4.703125 3.335938 4.695312 3.269531 C 4.695312 3.1875 4.734375 3.144531 4.816406 3.144531 L 5.304688 3.144531 C 5.398438 3.144531 5.464844 3.160156 5.5 3.195312 C 5.539062 3.222656 5.570312 3.292969 5.597656 3.390625 L 6.4375 6.691406 L 7.214844 3.390625 C 7.242188 3.289062 7.269531 3.222656 7.308594 3.195312 C 7.371094 3.15625 7.441406 3.140625 7.511719 3.144531 L 7.910156 3.144531 C 8.003906 3.144531 8.070312 3.160156 8.109375 3.195312 C 8.148438 3.222656 8.183594 3.292969 8.203125 3.390625 L 8.992188 6.730469 L 9.855469 3.390625 C 9.882812 3.289062 9.917969 3.222656 9.953125 3.195312 C 10.011719 3.15625 10.082031 3.140625 10.148438 3.144531 L 10.613281 3.144531 C 10.691406 3.144531 10.738281 3.183594 10.738281 3.269531 C 10.738281 3.292969 10.734375 3.320312 10.726562 3.347656 C 10.71875 3.390625 10.707031 3.433594 10.691406 3.472656 L 9.492188 7.328125 C 9.460938 7.429688 9.425781 7.496094 9.386719 7.523438 C 9.328125 7.558594 9.261719 7.578125 9.195312 7.574219 L 8.765625 7.574219 C 8.671875 7.574219 8.609375 7.558594 8.566406 7.523438 C 8.527344 7.488281 8.492188 7.425781 8.472656 7.324219 L 7.699219 4.105469 L 6.929688 7.320312 C 6.90625 7.417969 6.875 7.484375 6.835938 7.519531 C 6.796875 7.554688 6.726562 7.570312 6.636719 7.570312 Z M 12.617188 7.703125 C 12.359375 7.703125 12.097656 7.675781 11.851562 7.613281 C 11.601562 7.554688 11.40625 7.488281 11.277344 7.414062 C 11.195312 7.371094 11.140625 7.320312 11.121094 7.277344 C 11.101562 7.230469 11.09375 7.183594 11.09375 7.136719 L 11.09375 6.882812 C 11.09375 6.777344 11.132812 6.726562 11.207031 6.726562 C 11.234375 6.726562 11.265625 6.730469 11.296875 6.742188 C 11.328125 6.75 11.371094 6.773438 11.421875 6.792969 C 11.589844 6.867188 11.773438 6.925781 11.96875 6.964844 C 12.167969 7.007812 12.363281 7.027344 12.5625 7.027344 C 12.878906 7.027344 13.121094 6.972656 13.292969 6.859375 C 13.457031 6.761719 13.554688 6.582031 13.550781 6.386719 C 13.554688 6.257812 13.507812 6.132812 13.417969 6.039062 C 13.328125 5.945312 13.15625 5.859375 12.914062 5.777344 L 12.1875 5.554688 C 11.824219 5.4375 11.554688 5.269531 11.390625 5.046875 C 11.230469 4.839844 11.140625 4.585938 11.140625 4.320312 C 11.140625 4.113281 11.1875 3.929688 11.277344 3.769531 C 11.367188 3.609375 11.484375 3.46875 11.636719 3.359375 C 11.785156 3.246094 11.953125 3.160156 12.15625 3.101562 C 12.355469 3.039062 12.5625 3.015625 12.78125 3.015625 C 12.890625 3.015625 13.007812 3.019531 13.117188 3.035156 C 13.230469 3.050781 13.335938 3.070312 13.441406 3.089844 C 13.542969 3.113281 13.636719 3.140625 13.726562 3.167969 C 13.816406 3.199219 13.886719 3.230469 13.9375 3.257812 C 13.996094 3.289062 14.046875 3.332031 14.085938 3.382812 C 14.117188 3.433594 14.132812 3.492188 14.128906 3.546875 L 14.128906 3.78125 C 14.128906 3.886719 14.089844 3.941406 14.015625 3.941406 C 13.949219 3.933594 13.882812 3.914062 13.824219 3.882812 C 13.523438 3.75 13.199219 3.683594 12.867188 3.6875 C 12.582031 3.6875 12.359375 3.734375 12.203125 3.828125 C 12.050781 3.921875 11.96875 4.066406 11.96875 4.273438 C 11.96875 4.410156 12.019531 4.53125 12.121094 4.625 C 12.21875 4.722656 12.402344 4.816406 12.667969 4.902344 L 13.375 5.125 C 13.734375 5.238281 13.996094 5.398438 14.148438 5.605469 C 14.304688 5.808594 14.378906 6.042969 14.378906 6.300781 C 14.378906 6.515625 14.335938 6.710938 14.25 6.882812 C 14.160156 7.050781 14.039062 7.199219 13.886719 7.320312 C 13.730469 7.445312 13.546875 7.535156 13.332031 7.601562 C 13.105469 7.667969 12.875 7.703125 12.617188 7.703125 Z M 13.5625 10.128906 C 11.921875 11.34375 9.535156 11.984375 7.484375 11.984375 C 4.609375 11.984375 2.023438 10.921875 0.0664062 9.15625 C -0.0898438 9.015625 0.0507812 8.828125 0.234375 8.9375 C 2.351562 10.164062 4.960938 10.90625 7.660156 10.90625 C 9.480469 10.90625 11.480469 10.527344 13.320312 9.75 C 13.597656 9.625 13.832031 9.929688 13.5625 10.128906 Z M 14.246094 9.351562 C 14.035156 9.082031 12.859375 9.222656 12.324219 9.285156 C 12.164062 9.304688 12.140625 9.167969 12.285156 9.0625 C 13.222656 8.402344 14.765625 8.59375 14.941406 8.8125 C 15.121094 9.035156 14.894531 10.578125 14.015625 11.316406 C 13.878906 11.429688 13.75 11.371094 13.8125 11.222656 C 14.011719 10.726562 14.453125 9.617188 14.246094 9.351562 Z M 14.246094 9.351562 "/>
</g>
</svg>
