<?xml version="1.0" encoding="UTF-8"?>
<svg xmlns="http://www.w3.org/2000/svg" xmlns:xlink="http://www.w3.org/1999/xlink" width="15pt" height="15pt" viewBox="0 0 15 15" version="1.1">
<g id="surface1">
<path style=" stroke:none;fill-rule:nonzero;fill:rgb(0%,0%,0%);fill-opacity:1;" d="M 6.964844 0 L 9.417969 0 L 9.417969 11.355469 C 8.160156 11.59375 7.238281 11.6875 6.234375 11.6875 C 3.238281 11.6875 1.679688 10.335938 1.679688 7.738281 C 1.679688 5.238281 3.335938 3.613281 5.898438 3.613281 C 6.296875 3.613281 6.601562 3.644531 6.964844 3.738281 Z M 6.964844 5.714844 C 5.386719 5.75 4.082031 4.5 4.046875 2.921875 C 4.011719 1.34375 5.261719 0.0351562 6.839844 0 C 5.597656 0 4.878906 0.765625 4.878906 2.101562 C 4.878906 3.410156 5.566406 4.125 6.824219 4.125 C 7.09375 4.125 7.316406 4.109375 7.667969 4.0625 L 7.667969 5.714844 Z M 13.320312 3.789062 L 13.320312 9.472656 C 13.320312 11.433594 13.179688 12.371094 12.75 13.183594 C 12.351562 13.964844 11.824219 14.457031 10.742188 15 L 8.464844 13.917969 C 9.546875 13.40625 10.074219 12.960938 10.40625 12.277344 C 10.757812 11.574219 10.867188 10.761719 10.867188 8.628906 L 10.867188 3.785156 L 13.320312 3.785156 Z M 10.867188 0.0117188 L 13.320312 0.0117188 L 13.320312 2.53125 L 10.867188 2.53125 Z M 10.867188 0.0117188 "/>
</g>
</svg>
