<?xml version="1.0" encoding="UTF-8"?>
<svg xmlns="http://www.w3.org/2000/svg" xmlns:xlink="http://www.w3.org/1999/xlink" width="15pt" height="15pt" viewBox="0 0 15 15" version="1.1">
<g id="surface1">
<path style=" stroke:none;fill-rule:nonzero;fill:rgb(0%,0%,0%);fill-opacity:1;" d="M 8.738281 6.921875 L 10.0625 6.921875 C 8.152344 9.703125 4.347656 10.40625 1.570312 8.492188 C -1.210938 6.582031 -1.910156 2.777344 0 0 L 0 5.628906 C -1.554688 5.660156 -2.839844 4.425781 -2.871094 2.871094 C -2.90625 1.316406 -1.671875 0.03125 -0.117188 0 L -1.441406 0 C -1.40625 -0.0195312 -1.359375 -0.0195312 -1.324219 0 L -1.324219 1.179688 C -1.324219 1.242188 -1.273438 1.296875 -1.210938 1.296875 M -3.054688 -2.097656 L -1.730469 -2.097656 C -1.152344 -2.933594 -0.00390625 -3.140625 0.832031 -2.5625 C 1.667969 -1.984375 1.875 -0.835938 1.296875 0 L 1.296875 2.234375 C 0.679688 2.265625 0.152344 1.792969 0.121094 1.175781 C 0.0898438 0.558594 0.5625 0.03125 1.179688 0 L -0.144531 0 C -0.109375 -0.0195312 -0.0625 -0.0195312 -0.0273438 0 L -0.0273438 1.179688 C -0.0273438 1.242188 0.0234375 1.296875 0.0859375 1.296875 M 0.0859375 2.992188 L 1.410156 2.992188 C 0.585938 3.023438 -0.109375 2.382812 -0.144531 1.554688 C -0.175781 0.726562 0.46875 0.03125 1.296875 0 L 1.296875 3.929688 C 0.210938 3.964844 -0.695312 3.109375 -0.726562 2.023438 C -0.757812 0.9375 0.09375 0.03125 1.179688 0 L -0.144531 0 C -0.109375 -0.0195312 -0.0625 -0.0195312 -0.0273438 0 L -0.0273438 1.179688 C -0.0273438 1.242188 0.0234375 1.296875 0.0859375 1.296875 M -1.742188 1.296875 L -0.417969 1.296875 C -0.777344 0.820312 -0.683594 0.148438 -0.210938 -0.210938 C 0.265625 -0.566406 0.9375 -0.472656 1.296875 0 L 1.296875 3.929688 C 0.210938 3.964844 -0.695312 3.109375 -0.726562 2.023438 C -0.757812 0.9375 0.09375 0.03125 1.179688 0 L 5.0625 0 C 5.097656 -0.0195312 5.140625 -0.0195312 5.179688 0 L 5.179688 1.179688 C 5.179688 1.242188 5.230469 1.296875 5.292969 1.296875 M 3.441406 1.296875 L 4.765625 1.296875 C 4.40625 2.253906 3.339844 2.742188 2.382812 2.382812 C 1.425781 2.023438 0.9375 0.957031 1.296875 0 L 1.296875 3.929688 C 0.210938 3.964844 -0.695312 3.109375 -0.726562 2.023438 C -0.757812 0.9375 0.09375 0.03125 1.179688 0 L 3.210938 0 C 3.246094 -0.0195312 3.289062 -0.0195312 3.324219 0 L 3.324219 1.179688 C 3.324219 1.242188 3.378906 1.296875 3.441406 1.296875 M 7.125 2.992188 L 8.449219 2.992188 C 7.621094 4.96875 5.351562 5.898438 3.375 5.074219 C 1.402344 4.246094 0.46875 1.976562 1.296875 0 L 1.296875 5.628906 C -0.257812 5.660156 -1.542969 4.425781 -1.578125 2.871094 C -1.609375 1.316406 -0.375 0.03125 1.179688 0 L -0.144531 0 C -0.109375 -0.0195312 -0.0664062 -0.0195312 -0.0273438 0 L -0.0273438 1.179688 C -0.0273438 1.242188 0.0234375 1.296875 0.0859375 1.296875 M -1.746094 1.296875 L -0.417969 1.296875 C -0.777344 0.820312 -0.683594 0.148438 -0.210938 -0.210938 C 0.265625 -0.566406 0.9375 -0.472656 1.296875 0 L 1.296875 5.628906 C -0.257812 5.660156 -1.542969 4.425781 -1.578125 2.871094 C -1.609375 1.316406 -0.375 0.03125 1.179688 0 L -0.144531 0 C -0.109375 -0.0195312 -0.0664062 -0.0195312 -0.03125 0 L -0.03125 1.179688 C -0.03125 1.242188 0.0234375 1.296875 0.0859375 1.296875 M -1.765625 1.296875 L -0.441406 1.296875 C -0.800781 0.816406 -0.703125 0.136719 -0.222656 -0.222656 C 0.257812 -0.578125 0.9375 -0.480469 1.296875 0 L 1.296875 5.628906 C -0.257812 5.660156 -1.542969 4.425781 -1.578125 2.871094 C -1.609375 1.316406 -0.375 0.03125 1.179688 0 L -0.144531 0 C -0.109375 -0.0195312 -0.0664062 -0.0195312 -0.03125 0 L -0.03125 1.179688 C -0.03125 1.242188 0.0234375 1.296875 0.0859375 1.296875 M -1.738281 1.296875 L -0.414062 1.296875 C -0.769531 0.824219 -0.679688 0.152344 -0.207031 -0.207031 C 0.265625 -0.5625 0.9375 -0.472656 1.296875 0 L 1.296875 5.628906 C -0.257812 5.660156 -1.546875 4.425781 -1.578125 2.871094 C -1.609375 1.316406 -0.375 0.03125 1.179688 0 L -0.144531 0 C -0.109375 -0.0195312 -0.0664062 -0.0195312 -0.03125 0 L -0.03125 1.179688 C -0.03125 1.242188 0.0195312 1.296875 0.0859375 1.296875 M 14.851562 6.179688 C 14.8125 6.148438 14.433594 5.863281 13.628906 5.863281 C 13.417969 5.863281 13.207031 5.882812 13 5.917969 C 12.84375 4.855469 11.964844 4.335938 11.925781 4.3125 L 11.710938 4.1875 L 11.570312 4.394531 C 11.394531 4.667969 11.265625 4.96875 11.1875 5.285156 C 11.042969 5.894531 11.132812 6.464844 11.441406 6.949219 C 11.066406 7.15625 10.472656 7.207031 10.351562 7.210938 L 0.46875 7.210938 C 2.433594 7.082031 4.128906 8.570312 4.257812 10.535156 C 4.386719 12.496094 2.898438 14.195312 0.9375 14.324219 C 1.277344 15.214844 1.785156 15.871094 2.441406 16.273438 C 3.179688 16.726562 4.378906 16.984375 5.738281 16.984375 C 6.355469 16.988281 6.96875 16.933594 7.570312 16.820312 C 4.59375 15.515625 2.765625 12.476562 3.003906 9.238281 C 3.246094 5.996094 5.507812 3.261719 8.644531 2.414062 C 11.78125 1.570312 15.109375 2.792969 16.949219 5.472656 C 18.789062 8.152344 18.738281 11.699219 16.820312 14.324219 C 17.433594 13.96875 17.980469 13.515625 18.449219 12.988281 C 19.234375 12.101562 19.699219 11.113281 20.046875 10.238281 L 20.183594 10.238281 C 21.042969 10.238281 21.570312 9.894531 21.859375 9.605469 C 22.050781 9.421875 22.203125 9.199219 22.300781 8.953125 L 22.363281 8.773438 Z M 14.851562 6.179688 "/>
</g>
</svg>
