<?xml version="1.0" encoding="UTF-8"?>
<svg xmlns="http://www.w3.org/2000/svg" xmlns:xlink="http://www.w3.org/1999/xlink" width="15pt" height="15pt" viewBox="0 0 15 15" version="1.1">
<g id="surface1">
<path style=" stroke:none;fill-rule:nonzero;fill:rgb(0%,0%,0%);fill-opacity:1;" d="M 2.429688 9.796875 L 3.910156 0.289062 C 3.828125 1.367188 2.890625 2.179688 1.8125 2.097656 C 0.730469 2.019531 -0.078125 1.078125 0 0 L 1.589844 2.980469 Z M 12.925781 12.101562 L 11.519531 3.351562 C 10.59375 3.402344 9.804688 2.695312 9.753906 1.769531 C 9.703125 0.84375 10.410156 0.0507812 11.335938 0 L 2.074219 12.101562 L 6.984375 14.871094 C 11.089844 16.074219 15.390625 13.71875 16.59375 9.613281 C 17.796875 5.507812 15.441406 1.203125 11.335938 0 Z M 8.9375 4.46875 L 7.800781 2.289062 C 7.167969 2.289062 6.65625 1.777344 6.65625 1.144531 C 6.65625 0.511719 7.167969 0 7.800781 0 L 2.207031 11.238281 Z M 8.9375 4.46875 "/>
</g>
</svg>
