<?xml version="1.0" encoding="UTF-8"?>
<svg xmlns="http://www.w3.org/2000/svg" xmlns:xlink="http://www.w3.org/1999/xlink" width="15pt" height="15pt" viewBox="0 0 15 15" version="1.1">
<g id="surface1">
<path style=" stroke:none;fill-rule:nonzero;fill:rgb(0%,0%,0%);fill-opacity:1;" d="M 4.484375 12.726562 C 3.910156 12.273438 3.300781 11.84375 2.886719 11.238281 C 2.007812 10.167969 1.332031 8.929688 0.871094 7.625 C 0.59375 6.78125 0.496094 5.871094 0.140625 5.058594 C -0.238281 4.46875 0.203125 3.820312 0.851562 3.632812 C 1.136719 3.578125 1.644531 3.308594 1.03125 3.5 C 0.484375 3.902344 0.429688 3.136719 0.992188 3.085938 C 1.378906 3.035156 1.519531 2.722656 1.386719 2.4375 C 0.976562 2.171875 2.386719 1.875 1.675781 1.472656 C 0.9375 0.675781 2.710938 0.523438 2.273438 1.429688 C 2.171875 2.125 3.515625 1.300781 3.203125 2.105469 C 3.519531 2.492188 4.390625 2.191406 4.367188 2.734375 C 4.832031 2.765625 4.988281 3.15625 5.421875 3.1875 C 5.875 3.390625 6.6875 3.546875 6.839844 4.054688 C 6.394531 4.40625 5.363281 3.328125 5.3125 4.304688 C 5.445312 5.746094 5.414062 7.234375 5.941406 8.609375 C 6.191406 9.441406 6.796875 10.09375 7.34375 10.746094 C 7.867188 11.378906 8.574219 11.824219 9.296875 12.203125 C 9.929688 12.5 10.613281 12.699219 11.304688 12.824219 C 11.585938 12.609375 12.078125 11.8125 12.515625 12.148438 C 12.535156 12.527344 11.648438 12.9375 12.472656 12.894531 C 12.960938 12.75 13.296875 13.269531 13.695312 12.800781 C 14.0625 13.238281 15.222656 12.523438 14.960938 13.414062 C 14.609375 13.640625 14.09375 13.503906 13.738281 13.816406 C 13.152344 13.527344 12.6875 14.078125 12.039062 14.007812 C 8.910156 18.460938 3.246094 20.355469 -1.933594 18.683594 C -7.113281 17.007812 -10.597656 12.152344 -10.527344 6.710938 C -10.457031 1.269531 -6.847656 -3.492188 -1.628906 -5.035156 C 3.59375 -6.574219 9.207031 -4.53125 12.222656 0 C 11.027344 -0.09375 9.804688 -0.132812 8.667969 -0.550781 C 8.03125 -0.734375 7.40625 -1.101562 6.84375 -1.464844 Z M 5.492188 13.164062 C 6.117188 13.433594 6.726562 13.71875 7.414062 13.804688 C 8.5 13.953125 9.625 14.1875 10.714844 13.976562 C 10.222656 13.75 9.710938 14.0625 9.21875 13.816406 C 8.628906 13.941406 7.996094 13.78125 7.394531 13.703125 C 6.710938 13.402344 5.976562 13.191406 5.339844 12.796875 C 4.539062 12.507812 5.75 13.171875 5.964844 13.226562 C 6.464844 13.507812 5.417969 13.078125 5.269531 12.960938 C 4.851562 12.726562 4.796875 12.777344 5.230469 13.015625 C 5.316406 13.066406 5.402344 13.117188 5.492188 13.160156 Z M 4.300781 12.320312 C 4.90625 12.546875 4.300781 11.894531 4.019531 11.933594 C 3.898438 11.71875 3.550781 11.585938 3.796875 11.46875 C 3.355469 11.621094 3.335938 10.890625 3.125 10.992188 C 2.660156 10.847656 2.945312 10.324219 2.390625 10.003906 C 2.339844 9.667969 1.839844 9.375 1.679688 8.867188 C 1.609375 8.605469 1.113281 7.859375 1.417969 8.554688 C 1.679688 9.222656 2.132812 9.796875 2.511719 10.371094 C 2.808594 10.917969 3.15625 11.488281 3.691406 11.828125 C 3.871094 12 4.046875 12.265625 4.300781 12.320312 Z M 2.554688 10.40625 C 2.578125 10.3125 2.667969 10.601562 2.554688 10.40625 Z M 5.027344 12.589844 C 5.160156 12.53125 4.832031 12.515625 5.027344 12.589844 Z M 5.355469 12.710938 C 5.324219 12.542969 5.207031 12.800781 5.355469 12.710938 Z M 5.769531 12.882812 C 5.964844 12.695312 5.464844 12.765625 5.769531 12.882812 Z M 6.472656 13.277344 C 6.59375 13.097656 6.09375 13.207031 6.472656 13.277344 Z M 5.117188 12.328125 C 5.421875 12.132812 4.726562 12.328125 5.117188 12.328125 Z M 5.425781 12.484375 C 5.417969 12.378906 5.316406 12.53125 5.425781 12.484375 Z M 6.972656 13.449219 C 7.21875 13.605469 8.421875 13.792969 7.667969 13.511719 C 7.542969 13.539062 6.273438 13.152344 6.96875 13.449219 Z M 4.519531 11.539062 C 4.496094 11.433594 4.136719 11.421875 4.519531 11.539062 Z M 5.238281 11.957031 C 5.425781 11.828125 4.851562 11.859375 5.238281 11.957031 Z M 5.84375 12.328125 C 6.113281 12.226562 5.40625 12.226562 5.84375 12.328125 Z M 4.226562 11.21875 C 4.519531 11.445312 5.402344 11.25 4.675781 11.085938 C 4.34375 10.910156 3.59375 10.789062 4.105469 11.191406 Z M 6.253906 12.457031 C 6.375 12.25 5.742188 12.335938 6.253906 12.457031 Z M 5.636719 11.96875 C 6.351562 12.167969 5.039062 11.515625 5.460938 11.894531 L 5.554688 11.9375 Z M 6.871094 12.679688 C 7.546875 12.6875 6.261719 12.585938 6.871094 12.679688 Z M 3.96875 10.828125 C 3.941406 10.703125 3.800781 10.839844 3.96875 10.828125 Z M 8.011719 13.320312 C 8.03125 13.09375 7.792969 13.488281 8.011719 13.320312 Z M 5.117188 11.535156 C 5.078125 11.414062 4.910156 11.53125 5.117188 11.535156 Z M 4.03125 10.75 C 4.421875 10.726562 3.503906 10.582031 4.03125 10.75 Z M 2.746094 9.917969 C 2.695312 9.734375 2.324219 9.585938 2.746094 9.917969 Z M 6.125 12.066406 C 6.054688 11.984375 6.089844 12.082031 6.125 12.066406 Z M 8.226562 13.355469 C 8.222656 13.234375 8.113281 13.402344 8.226562 13.355469 Z M 5.9375 11.875 C 5.976562 11.714844 5.609375 11.824219 5.9375 11.875 Z M 4.371094 10.878906 C 4.660156 10.847656 3.910156 10.683594 4.371094 10.878906 Z M 7.023438 12.527344 C 7.472656 12.347656 6.585938 12.4375 7.023438 12.527344 Z M 5.644531 11.589844 C 6.160156 11.65625 5.027344 11.238281 5.53125 11.554688 Z M 7.441406 12.695312 C 7.925781 12.40625 7.765625 13.371094 8.261719 12.777344 C 8.75 12.421875 7.839844 13.21875 8.441406 12.839844 C 8.875 12.550781 9.519531 12.980469 9.925781 13.121094 C 10.21875 13.105469 10.503906 13.371094 10.804688 13.210938 C 11.378906 13.054688 9.675781 12.980469 10.121094 12.703125 C 9.59375 12.855469 9.203125 12.519531 8.945312 12.183594 C 8.351562 12.042969 7.667969 11.742188 7.371094 11.21875 C 7.25 11.019531 7.546875 11.246094 7.265625 10.925781 C 6.910156 10.605469 6.734375 10.246094 6.492188 9.859375 C 6.207031 9.707031 6.171875 9.257812 6.144531 9.84375 C 6.148438 9.476562 5.796875 9.226562 5.714844 9.328125 C 5.714844 8.972656 6.085938 9.152344 5.824219 8.886719 C 5.769531 8.515625 5.582031 8.132812 5.527344 7.714844 C 5.441406 7.511719 5.515625 7.082031 5.230469 7.539062 C 5.128906 8.019531 5.199219 6.945312 5.359375 7.300781 C 5.570312 6.9375 5.28125 6.980469 5.269531 7.03125 C 5.40625 6.726562 5.359375 6.292969 5.234375 6.460938 C 5.308594 6.136719 5.351562 5.269531 5.125 5.425781 C 5.261719 5.085938 5.382812 3.878906 4.792969 4.339844 C 4.550781 4.34375 4.136719 4.425781 3.941406 4.523438 C 4.554688 4.863281 3.878906 4.648438 3.628906 4.59375 C 3.59375 4.90625 3.347656 4.769531 3.035156 4.773438 C 3.53125 4.835938 2.796875 5.28125 2.511719 5.109375 C 2.140625 5.285156 2.828125 5.726562 2.519531 5.859375 C 2.554688 6.066406 1.953125 5.785156 2 6.261719 C 1.640625 6.109375 1.949219 6.824219 2.128906 6.582031 C 2.738281 6.746094 2.558594 7.125 2.574219 7.480469 C 2.476562 7.6875 2.082031 6.992188 2.484375 7.023438 C 2.167969 6.507812 2.136719 6.835938 1.871094 7.078125 C 1.808594 7.09375 2.546875 7.417969 2.082031 7.578125 C 2.488281 7.640625 2.5 7.996094 2.582031 8.222656 C 2.828125 8.476562 2.777344 7.941406 3.070312 8.246094 C 2.886719 7.976562 2.089844 7.480469 2.730469 7.640625 C 2.726562 7.363281 2.613281 7.144531 2.8125 7.148438 C 3.003906 6.796875 2.609375 8.015625 3.046875 7.570312 C 3.167969 7.515625 3.195312 7.21875 3.414062 7.597656 C 3.730469 7.90625 3.527344 8.132812 3.082031 7.847656 C 3.160156 8.121094 3.679688 8.214844 3.582031 8.640625 C 3.683594 9.011719 3.828125 8.875 3.953125 8.851562 C 4.054688 9.214844 4.109375 8.949219 4.113281 8.777344 C 4.5625 8.875 4.457031 9.140625 4.601562 9.328125 C 4.910156 9.464844 4.15625 8.375 4.6875 8.996094 C 5.25 9.503906 4.898438 9.714844 4.394531 9.636719 C 4.714844 9.609375 4.816406 10.066406 5.214844 10.050781 C 5.578125 10.222656 5.824219 10.886719 5.199219 10.609375 C 4.980469 10.414062 4.210938 10.171875 4.839844 10.546875 C 5.421875 10.8125 5.882812 10.976562 6.441406 11.3125 C 6.839844 11.597656 7.015625 11.925781 7.167969 11.992188 C 6.828125 12.152344 6.152344 11.863281 6.65625 11.773438 C 6.339844 11.71875 5.988281 11.558594 6.289062 11.949219 C 6.546875 12.164062 7.195312 12.140625 7.3125 12.164062 C 7.210938 12.382812 7.042969 12.398438 7.316406 12.417969 C 7.011719 12.578125 7.414062 12.605469 7.441406 12.695312 Z M 6.820312 10.941406 C 6.636719 10.746094 6.585938 10.382812 6.785156 10.699219 C 6.890625 10.742188 7.113281 11.292969 6.820312 10.941406 Z M 8.84375 12.226562 C 8.960938 12.21875 8.847656 12.3125 8.84375 12.226562 Z M 6.527344 10.464844 C 6.519531 10.171875 6.59375 10.691406 6.527344 10.464844 Z M 6.328125 10.195312 C 6.09375 9.746094 6.621094 10.324219 6.328125 10.195312 Z M 3.890625 8.511719 C 4.027344 8.476562 3.957031 8.746094 3.890625 8.511719 Z M 5.828125 9.5625 C 5.914062 9.25 5.925781 9.828125 5.828125 9.5625 Z M 4.457031 8.609375 C 4.363281 8.4375 4.660156 8.773438 4.457031 8.609375 Z M 5.636719 8.988281 C 5.414062 8.496094 5.792969 8.71875 5.683594 9.070312 Z M 3.605469 7.636719 C 3.507812 7.472656 3.34375 7 3.398438 6.851562 C 3.445312 7.089844 3.898438 7.871094 3.621094 7.175781 C 3.3125 6.59375 3.988281 7.367188 4.058594 7.511719 C 4.089844 7.65625 3.867188 7.472656 4.019531 7.808594 C 3.746094 7.421875 3.855469 8.023438 3.605469 7.636719 Z M 2.980469 7.203125 C 3.003906 6.828125 3.125 7.460938 2.980469 7.203125 Z M 3.261719 7.300781 C 3.394531 7.015625 3.488281 7.695312 3.261719 7.300781 Z M 2.582031 6.777344 C 2.347656 6.542969 2.179688 6.328125 2.59375 6.632812 C 2.753906 6.636719 2.238281 6.144531 2.632812 6.476562 C 3.042969 6.550781 2.835938 7.152344 2.582031 6.777344 Z M 2.9375 6.765625 C 3.074219 6.632812 3.011719 6.898438 2.9375 6.765625 Z M 3.15625 6.835938 C 2.953125 6.453125 3.40625 7 3.15625 6.835938 Z M 2.722656 6.421875 C 2.042969 5.816406 3.574219 6.734375 2.832031 6.53125 Z M 4.667969 7.550781 C 4.371094 7.375 4.589844 6.308594 4.6875 7.039062 C 4.976562 6.945312 4.671875 7.414062 4.886719 7.410156 C 4.851562 7.703125 4.757812 7.8125 4.667969 7.550781 Z M 5.386719 7.976562 C 5.414062 7.65625 5.445312 8.195312 5.386719 7.976562 Z M 5.261719 7.851562 C 5.292969 7.714844 5.265625 8.011719 5.261719 7.851562 Z M 2.855469 6.222656 C 2.421875 5.621094 4.125 6.828125 3.136719 6.375 C 3.03125 6.347656 2.90625 6.335938 2.855469 6.222656 Z M 4.242188 6.957031 C 4.199219 6.449219 4.332031 7.039062 4.242188 6.957031 Z M 5.292969 7.628906 C 5.375 7.34375 5.296875 7.820312 5.292969 7.628906 Z M 2.921875 5.992188 C 3.183594 5.9375 3.996094 6.449219 3.246094 6.136719 C 3.164062 6.046875 2.988281 6.089844 2.921875 5.992188 Z M 5.148438 7.101562 C 5.175781 6.582031 5.300781 6.792969 5.148438 7.175781 Z M 3.117188 5.8125 C 3.222656 5.65625 2.835938 5.113281 3.171875 5.617188 C 3.316406 5.730469 3.589844 5.808594 3.347656 5.859375 C 3.730469 6.195312 3.253906 5.949219 3.117188 5.8125 Z M 5.039062 6.9375 C 5.109375 6.347656 5.101562 7.285156 5.039062 6.9375 Z M 2.894531 5.265625 C 2.976562 5.234375 2.9375 5.375 2.894531 5.265625 Z M 3.394531 5.566406 C 3.523438 5.292969 3.632812 5.867188 3.394531 5.566406 Z M 4.8125 6.351562 C 4.808594 6.25 4.835938 6.503906 4.8125 6.351562 Z M 4.730469 6.171875 C 4.53125 5.6875 4.910156 6.425781 4.730469 6.171875 Z M 4.609375 5.851562 C 4.574219 5.652344 4.71875 6.105469 4.609375 5.851562 Z M 4.804688 5.535156 C 4.667969 5.296875 4.972656 4.488281 5.007812 4.988281 C 4.867188 5.378906 4.96875 5.597656 5.066406 5.074219 C 5.25 4.664062 5.027344 5.890625 4.804688 5.535156 Z M 5.003906 4.332031 C 5.0625 4.261719 5.019531 4.417969 5.003906 4.332031 Z M 4.667969 10.964844 C 4.589844 10.894531 4.679688 11.007812 4.667969 10.964844 Z M 5.363281 11.316406 C 5.746094 11.414062 5.746094 11.253906 5.398438 11.207031 C 5.210938 11.035156 4.617188 10.847656 5.148438 11.1875 C 5.183594 11.277344 5.292969 11.273438 5.363281 11.316406 Z M 3.992188 10.40625 C 4.207031 10.5625 4.792969 10.855469 4.296875 10.464844 C 4.464844 10.269531 3.972656 10.167969 4.136719 10.039062 C 3.722656 9.785156 3.8125 9.808594 4.101562 9.816406 C 3.605469 9.59375 4.171875 9.609375 4.144531 9.496094 C 3.953125 9.457031 3.195312 9.160156 3.640625 9.519531 C 3.1875 9.289062 3.535156 9.609375 3.398438 9.574219 C 2.933594 9.449219 3.808594 9.925781 3.324219 9.808594 C 3.589844 10.019531 4.039062 10.347656 3.4375 10.03125 C 3.355469 10.144531 3.867188 10.320312 3.992188 10.40625 Z M 4.71875 10.824219 C 5.597656 11.105469 4.285156 10.476562 4.71875 10.824219 Z M 8.429688 13.070312 C 8.441406 12.898438 8.308594 13.222656 8.429688 13.070312 Z M 8.8125 13.234375 C 9.015625 13.035156 8.820312 13.546875 9.148438 13.183594 C 9.152344 12.925781 9.140625 12.773438 8.769531 13.085938 C 8.671875 13.144531 8.625 13.382812 8.8125 13.234375 Z M 2.753906 9.429688 C 2.691406 9.183594 2.316406 9.183594 2.753906 9.429688 Z M 3.164062 9.695312 C 3.011719 9.445312 2.621094 9.46875 3.164062 9.695312 Z M 5.480469 11.09375 C 5.707031 11.292969 6.519531 11.242188 5.757812 11.117188 C 5.640625 10.949219 5.035156 10.992188 5.480469 11.09375 Z M 8.667969 13.0625 C 9.015625 12.769531 8.328125 13.191406 8.667969 13.0625 Z M 9.390625 13.558594 C 9.394531 13.464844 9.242188 13.601562 9.390625 13.558594 Z M 9.390625 13.429688 C 9.777344 13.019531 9.019531 13.453125 9.390625 13.429688 Z M 1.753906 8.589844 C 1.425781 8.121094 1.546875 7.910156 1.230469 7.527344 C 1.171875 7.234375 0.6875 6.570312 0.980469 7.273438 C 1.25 7.683594 1.328125 8.324219 1.753906 8.589844 Z M 9.273438 13.296875 C 9.980469 12.839844 8.980469 13.097656 9.273438 13.296875 Z M 9.8125 13.511719 C 10.167969 13.207031 9.589844 13.445312 9.8125 13.511719 Z M 2.632812 8.910156 C 2.734375 8.757812 2.371094 8.890625 2.632812 8.910156 Z M 9.699219 13.363281 C 10.042969 13.144531 9.621094 13.175781 9.636719 13.386719 Z M 5.03125 10.421875 C 5.019531 10.269531 4.847656 10.433594 5.03125 10.421875 Z M 5.320312 10.589844 C 5.226562 10.402344 5.179688 10.617188 5.320312 10.589844 Z M 10.253906 13.515625 C 10.691406 13.195312 9.984375 13.453125 10.160156 13.574219 Z M 10.082031 13.433594 C 10.441406 13.132812 9.703125 13.566406 10.082031 13.433594 Z M 10.945312 14.007812 C 11.1875 13.847656 10.652344 13.957031 10.945312 14.007812 Z M 2.855469 8.800781 C 3.179688 8.871094 4.148438 9.597656 3.578125 8.851562 C 3.285156 8.765625 3.460938 8.046875 3.160156 8.175781 C 3.359375 8.507812 3.324219 8.652344 2.90625 8.441406 C 2.375 8.183594 2.609375 8.570312 2.710938 8.675781 C 2.570312 8.707031 2.898438 8.796875 2.855469 8.800781 Z M 1.382812 7.636719 C 1.441406 7.398438 0.851562 6.320312 1.105469 7.097656 C 1.195312 7.261719 1.1875 7.570312 1.382812 7.636719 Z M 4.085938 9.304688 C 3.921875 9.164062 4.078125 9.285156 4.085938 9.304688 Z M 4.496094 9.398438 C 4.496094 9.144531 4.042969 9.296875 4.496094 9.398438 Z M 8.046875 11.636719 C 7.980469 11.464844 7.78125 11.632812 8.046875 11.636719 Z M 8.21875 11.761719 C 8.191406 11.664062 8.121094 11.78125 8.21875 11.761719 Z M 9.625 12.648438 C 9.761719 12.550781 9.457031 12.636719 9.625 12.648438 Z M 2.117188 7.824219 C 2.507812 7.675781 1.703125 7.71875 2.117188 7.824219 Z M 7.734375 11.363281 C 7.730469 11.113281 7.488281 11.425781 7.734375 11.363281 Z M 1.964844 7.46875 C 2.214844 7.386719 1.734375 7.414062 1.964844 7.46875 Z M 2.6875 7.820312 C 2.683594 7.734375 2.609375 7.851562 2.6875 7.820312 Z M 11.492188 13.21875 C 11.8125 13.15625 12.542969 13.382812 12.660156 13.132812 C 12.273438 13.125 11.316406 12.859375 11.269531 13.195312 L 11.355469 13.210938 Z M 2.917969 7.875 C 2.921875 7.621094 2.71875 7.867188 2.917969 7.875 Z M 1.019531 6.558594 C 0.933594 6.074219 0.691406 6.484375 1.019531 6.558594 Z M 1.472656 6.671875 C 1.476562 6.515625 1.058594 6.53125 1.472656 6.671875 Z M 1.730469 6.800781 C 1.65625 6.738281 1.671875 6.875 1.730469 6.800781 Z M 3.359375 7.84375 C 3.433594 7.773438 3.175781 7.792969 3.359375 7.84375 Z M 1.558594 6.515625 C 1.515625 6.148438 1.03125 6.457031 1.558594 6.515625 Z M 0.628906 5.910156 C 0.617188 5.742188 0.539062 5.976562 0.628906 5.910156 Z M 0.765625 5.808594 C 0.746094 5.605469 0.648438 5.832031 0.765625 5.808594 Z M 1.53125 6.261719 C 1.851562 6.136719 0.941406 6 1.464844 6.238281 Z M 11.738281 12.566406 C 11.945312 12.378906 11.476562 12.507812 11.738281 12.566406 Z M 12.972656 13.207031 C 13.054688 12.960938 12.761719 13.238281 12.972656 13.207031 Z M 1.609375 5.863281 C 1.640625 5.625 1.351562 5.910156 1.609375 5.863281 Z M 0.523438 5.136719 C 0.464844 4.800781 0.472656 4.214844 1.03125 4.414062 C 0.285156 4.5625 1.546875 5.339844 1.386719 4.726562 C 1.699219 4.738281 2 4.539062 1.835938 4.84375 C 2.453125 4.773438 2.878906 4.242188 3.472656 4.316406 C 3.9375 4.253906 4.445312 4.207031 4.945312 4.019531 C 5.355469 3.992188 5.75 3.546875 5.527344 3.285156 C 4.96875 3.238281 4.378906 3.308594 3.761719 3.433594 C 3.074219 3.574219 2.449219 3.847656 1.757812 3.964844 C 1.082031 4.054688 1.890625 4.214844 1.699219 4.25 C 1.347656 4.371094 2.121094 4.453125 1.652344 4.582031 C 1.367188 4.527344 1.066406 4.429688 1.1875 4.125 C 0.542969 4.207031 -0.0273438 4.476562 0.484375 5.136719 Z M 2.082031 4.34375 C 2.234375 3.785156 2.894531 4.800781 2.332031 4.417969 C 2.261719 4.367188 2.152344 4.324219 2.082031 4.339844 Z M 2.109375 4.070312 C 2.328125 3.910156 2.226562 4.164062 2.109375 4.070312 Z M 2.390625 4.078125 C 2.410156 3.820312 3.027344 4.210938 2.492188 4.167969 Z M 2.769531 3.921875 C 2.90625 3.761719 2.808594 4.066406 2.769531 3.921875 Z M 2.867188 3.859375 C 3.097656 3.582031 4.175781 3.679688 3.386719 3.832031 C 3.175781 3.671875 3.011719 3.925781 2.867188 3.859375 Z M 4.273438 3.640625 C 4.238281 2.882812 4.972656 3.910156 4.273438 3.640625 Z M 4.671875 3.640625 C 4.820312 3.257812 5.238281 3.484375 4.742188 3.5625 C 4.75 3.601562 4.726562 3.757812 4.671875 3.640625 Z M 1.453125 5.667969 C 1.886719 5.398438 0.988281 5.4375 1.453125 5.667969 Z M 1.773438 5.757812 C 1.925781 5.59375 1.441406 5.691406 1.773438 5.757812 Z M 0.824219 5.082031 C 1.074219 4.890625 0.527344 5.007812 0.824219 5.082031 Z M 13.699219 13.136719 C 13.707031 12.917969 13.507812 13.238281 13.699219 13.136719 Z M 12.390625 12.246094 C 12.429688 11.988281 12.222656 12.265625 12.390625 12.246094 Z M 14.058594 13.222656 C 14.40625 13.222656 15.113281 13.117188 14.355469 13.117188 C 14.238281 13.136719 13.664062 13.132812 14.058594 13.222656 Z M 2.054688 5.597656 C 2.335938 5.582031 2.496094 5.289062 2 5.304688 C 1.234375 5.226562 2.679688 5.566406 1.902344 5.46875 C 1.796875 5.539062 2.050781 5.617188 2.054688 5.601562 Z M 2.304688 5.726562 C 2.273438 5.542969 2.21875 5.820312 2.304688 5.726562 Z M 2.597656 4.941406 C 2.722656 4.789062 2.429688 4.898438 2.597656 4.941406 Z M 1.660156 3.371094 C 2.164062 3.203125 2.851562 3.007812 3.089844 3.457031 C 2.847656 3.164062 2.992188 2.878906 3.222656 3.304688 C 3.542969 3.734375 3.707031 3.109375 3.496094 2.964844 C 3.734375 3.261719 4.007812 3.402344 3.65625 2.984375 C 4.039062 2.523438 2.890625 3.042969 2.632812 3.039062 C 2.507812 3.09375 1.335938 3.335938 1.660156 3.371094 Z M 1.957031 2.808594 C 2.242188 2.589844 2.949219 2.9375 2.496094 2.59375 C 2.453125 2.554688 1.503906 2.855469 1.957031 2.808594 Z M 3.003906 2.851562 C 3.339844 2.859375 2.859375 2.398438 3.257812 2.609375 C 3.191406 2.394531 2.792969 2.351562 2.59375 2.265625 C 2.484375 2.464844 2.820312 2.855469 3 2.851562 Z M 2.140625 1.902344 C 2.257812 1.742188 1.9375 1.980469 2.140625 1.902344 Z M 2.566406 2.003906 C 3.109375 1.933594 2.429688 1.769531 2.457031 1.996094 Z M 1.769531 1.378906 C 1.386719 0.882812 2.484375 1.460938 2.097656 0.941406 C 1.773438 0.683594 1.460938 1.234375 1.769531 1.378906 Z M 6.660156 4.011719 C 6.835938 3.703125 5.9375 3.59375 6.542969 3.902344 C 6.597656 3.921875 6.585938 4.035156 6.660156 4.011719 Z M 6.660156 4.011719 "/>
</g>
</svg>
