<?xml version="1.0" encoding="UTF-8"?>
<svg xmlns="http://www.w3.org/2000/svg" xmlns:xlink="http://www.w3.org/1999/xlink" width="15pt" height="15pt" viewBox="0 0 15 15" version="1.1">
<g id="surface1">
<path style=" stroke:none;fill-rule:nonzero;fill:rgb(0%,0%,0%);fill-opacity:1;" d="M 14.714844 6.832031 L 8.167969 0.28125 C 7.789062 -0.09375 7.179688 -0.09375 6.800781 0.28125 L 5.441406 1.640625 L 7.167969 3.367188 C 7.570312 3.234375 8.03125 3.324219 8.347656 3.640625 C 8.671875 3.964844 8.757812 4.429688 8.621094 4.828125 L 10.28125 6.492188 C 10.6875 6.351562 11.148438 6.445312 11.46875 6.765625 C 11.921875 7.214844 11.921875 7.941406 11.46875 8.390625 C 11.019531 8.839844 10.296875 8.839844 9.84375 8.390625 C 9.507812 8.054688 9.425781 7.554688 9.59375 7.144531 L 8.039062 5.597656 L 8.039062 9.675781 C 8.148438 9.730469 8.25 9.800781 8.34375 9.890625 C 8.789062 10.34375 8.789062 11.070312 8.34375 11.515625 C 7.894531 11.96875 7.160156 11.96875 6.710938 11.515625 C 6.261719 11.066406 6.261719 10.34375 6.710938 9.894531 C 6.824219 9.78125 6.953125 9.695312 7.089844 9.640625 L 7.089844 5.523438 C 6.953125 5.464844 6.824219 5.382812 6.714844 5.269531 C 6.375 4.929688 6.292969 4.433594 6.46875 4.015625 L 4.773438 2.3125 L 0.28125 6.800781 C -0.09375 7.179688 -0.09375 7.789062 0.28125 8.167969 L 6.832031 14.71875 C 7.207031 15.09375 7.820312 15.09375 8.199219 14.71875 L 14.714844 8.199219 C 15.09375 7.820312 15.09375 7.210938 14.714844 6.832031 "/>
</g>
</svg>
