<?xml version="1.0" encoding="UTF-8"?>
<svg xmlns="http://www.w3.org/2000/svg" xmlns:xlink="http://www.w3.org/1999/xlink" width="15pt" height="15pt" viewBox="0 0 15 15" version="1.1">
<g id="surface1">
<path style=" stroke:none;fill-rule:nonzero;fill:rgb(0%,0%,0%);fill-opacity:1;" d="M 7.5 0.1875 C 3.355469 0.1875 0 3.542969 0 7.6875 C 0 11 2.148438 13.8125 5.128906 14.800781 C 5.503906 14.871094 5.640625 14.640625 5.640625 14.441406 C 5.640625 14.261719 5.632812 13.789062 5.632812 13.164062 C 3.546875 13.617188 3.105469 12.160156 3.105469 12.160156 C 2.765625 11.292969 2.269531 11.0625 2.269531 11.0625 C 1.589844 10.597656 2.324219 10.605469 2.324219 10.605469 C 3.078125 10.660156 3.472656 11.378906 3.472656 11.378906 C 4.140625 12.527344 5.226562 12.195312 5.65625 12.003906 C 5.722656 11.519531 5.917969 11.1875 6.132812 11 C 4.464844 10.8125 2.714844 10.167969 2.714844 7.292969 C 2.714844 6.476562 3.003906 5.804688 3.488281 5.28125 C 3.402344 5.09375 3.148438 4.328125 3.550781 3.296875 C 3.550781 3.296875 4.179688 3.09375 5.613281 4.066406 C 6.214844 3.898438 6.851562 3.816406 7.488281 3.8125 C 8.128906 3.816406 8.765625 3.898438 9.363281 4.066406 C 10.789062 3.09375 11.417969 3.296875 11.417969 3.296875 C 11.820312 4.328125 11.566406 5.09375 11.492188 5.28125 C 11.972656 5.804688 12.261719 6.476562 12.261719 7.292969 C 12.261719 10.175781 10.507812 10.808594 8.839844 10.992188 C 9.101562 11.21875 9.347656 11.679688 9.347656 12.382812 C 9.347656 13.386719 9.335938 14.191406 9.335938 14.433594 C 9.335938 14.632812 9.46875 14.867188 9.851562 14.792969 C 12.851562 13.808594 15 10.996094 15 7.6875 C 15 3.542969 11.640625 0.1875 7.5 0.1875 "/>
</g>
</svg>
