<?xml version="1.0" encoding="UTF-8"?>
<svg xmlns="http://www.w3.org/2000/svg" xmlns:xlink="http://www.w3.org/1999/xlink" width="15pt" height="15pt" viewBox="0 0 15 15" version="1.1">
<g id="surface1">
<path style=" stroke:none;fill-rule:nonzero;fill:rgb(0%,0%,0%);fill-opacity:1;" d="M 5.53125 11.601562 C 5.53125 11.601562 4.957031 11.933594 5.941406 12.046875 C 7.128906 12.183594 7.734375 12.164062 9.046875 11.914062 C 9.046875 11.914062 9.390625 12.128906 9.871094 12.316406 C 6.933594 13.578125 3.226562 12.246094 5.53125 11.601562 M 5.171875 9.957031 C 5.171875 9.957031 4.53125 10.433594 5.511719 10.535156 C 6.78125 10.667969 7.785156 10.675781 9.519531 10.34375 C 9.519531 10.34375 9.757812 10.585938 10.136719 10.71875 C 6.585938 11.757812 2.632812 10.800781 5.171875 9.957031 M 8.199219 7.171875 C 8.921875 8.003906 8.007812 8.753906 8.007812 8.753906 C 8.007812 8.753906 9.84375 7.804688 9 6.617188 C 8.210938 5.511719 7.609375 4.960938 10.878906 3.0625 C 10.878906 3.0625 5.746094 4.34375 8.199219 7.171875 M 12.082031 12.816406 C 12.082031 12.816406 12.503906 13.164062 11.613281 13.433594 C 9.917969 13.949219 4.558594 14.101562 3.070312 13.453125 C 2.535156 13.222656 3.539062 12.898438 3.855469 12.832031 C 4.183594 12.761719 4.371094 12.773438 4.371094 12.773438 C 3.777344 12.355469 0.523438 13.597656 2.71875 13.953125 C 8.707031 14.921875 13.632812 13.515625 12.082031 12.816406 M 5.808594 8.257812 C 5.808594 8.257812 3.082031 8.902344 4.84375 9.140625 C 5.585938 9.238281 7.066406 9.214844 8.449219 9.101562 C 9.578125 9.003906 10.710938 8.800781 10.710938 8.800781 C 10.710938 8.800781 10.3125 8.972656 10.023438 9.167969 C 7.253906 9.898438 1.90625 9.558594 3.449219 8.8125 C 4.75 8.183594 5.808594 8.257812 5.808594 8.257812 M 10.699219 10.988281 C 13.511719 9.527344 12.210938 8.121094 11.300781 8.3125 C 11.082031 8.359375 10.980469 8.398438 10.980469 8.398438 C 10.980469 8.398438 11.0625 8.269531 11.222656 8.210938 C 13.019531 7.582031 14.398438 10.074219 10.640625 11.0625 C 10.640625 11.0625 10.683594 11.023438 10.699219 10.988281 M 9 0 C 9 0 10.558594 1.558594 7.523438 3.957031 C 5.085938 5.878906 6.96875 6.976562 7.523438 8.230469 C 6.101562 6.945312 5.058594 5.816406 5.757812 4.765625 C 6.785156 3.222656 9.628906 2.476562 9 0 M 6.082031 14.953125 C 8.785156 15.125 12.933594 14.855469 13.03125 13.578125 C 13.03125 13.578125 12.84375 14.0625 10.796875 14.449219 C 8.492188 14.882812 5.648438 14.832031 3.964844 14.554688 C 3.964844 14.550781 4.308594 14.839844 6.082031 14.953125 "/>
</g>
</svg>
