<?xml version="1.0" encoding="UTF-8"?>
<svg xmlns="http://www.w3.org/2000/svg" xmlns:xlink="http://www.w3.org/1999/xlink" width="15pt" height="15pt" viewBox="0 0 15 15" version="1.1">
<g id="surface1">
<path style=" stroke:none;fill-rule:nonzero;fill:rgb(0%,0%,0%);fill-opacity:1;" d="M 0 0 L 15 0 L 15 15 L 0 15 Z M 13.769531 11.421875 C 13.660156 10.738281 13.214844 10.164062 11.894531 9.625 C 11.433594 9.410156 10.921875 9.261719 10.769531 8.914062 C 10.714844 8.707031 10.707031 8.59375 10.742188 8.472656 C 10.835938 8.070312 11.3125 7.949219 11.6875 8.0625 C 11.933594 8.136719 12.15625 8.324219 12.300781 8.625 C 12.945312 8.203125 12.945312 8.203125 13.394531 7.921875 C 13.226562 7.65625 13.144531 7.546875 13.03125 7.433594 C 12.636719 6.992188 12.113281 6.765625 11.257812 6.785156 L 10.816406 6.84375 C 10.394531 6.945312 9.992188 7.171875 9.75 7.46875 C 9.035156 8.277344 9.242188 9.683594 10.105469 10.265625 C 10.957031 10.902344 12.207031 11.042969 12.363281 11.644531 C 12.515625 12.375 11.820312 12.609375 11.136719 12.523438 C 10.628906 12.410156 10.347656 12.15625 10.039062 11.6875 L 8.894531 12.347656 C 9.027344 12.644531 9.175781 12.777344 9.402344 13.039062 C 10.488281 14.136719 13.207031 14.082031 13.695312 12.410156 C 13.714844 12.355469 13.847656 11.972656 13.742188 11.378906 Z M 8.15625 6.894531 L 6.75 6.894531 C 6.75 8.105469 6.746094 9.308594 6.746094 10.523438 C 6.746094 11.292969 6.785156 12 6.660156 12.21875 C 6.453125 12.648438 5.921875 12.59375 5.679688 12.515625 C 5.433594 12.394531 5.308594 12.226562 5.164062 11.984375 C 5.125 11.917969 5.09375 11.859375 5.082031 11.859375 L 3.941406 12.5625 C 4.132812 12.957031 4.410156 13.296875 4.769531 13.511719 C 5.304688 13.828125 6.023438 13.933594 6.773438 13.765625 C 7.265625 13.625 7.6875 13.332031 7.90625 12.882812 C 8.226562 12.300781 8.15625 11.589844 8.15625 10.792969 C 8.160156 9.507812 8.15625 8.222656 8.15625 6.929688 Z M 8.15625 6.894531 "/>
</g>
</svg>
