<?xml version="1.0" encoding="UTF-8"?>
<svg xmlns="http://www.w3.org/2000/svg" xmlns:xlink="http://www.w3.org/1999/xlink" width="15pt" height="15pt" viewBox="0 0 15 15" version="1.1">
<g id="surface1">
<path style=" stroke:none;fill-rule:nonzero;fill:rgb(0%,0%,0%);fill-opacity:1;" d="M 7.230469 7.195312 L 0 7.195312 C 0 8.0625 0.34375 8.890625 0.957031 9.503906 C 1.574219 10.113281 2.402344 10.457031 3.269531 10.453125 L 4.601562 10.453125 L 4.601562 11.742188 C 4.601562 13.539062 6.058594 15 7.859375 15 L 7.859375 7.824219 C 7.859375 7.476562 7.578125 7.195312 7.230469 7.195312 Z M 10.808594 3.597656 L 3.585938 3.597656 C 3.585938 5.398438 5.042969 6.855469 6.84375 6.855469 L 8.175781 6.855469 L 8.175781 8.144531 C 8.175781 9.941406 9.636719 11.402344 11.433594 11.402344 L 11.433594 4.222656 C 11.433594 3.878906 11.152344 3.597656 10.808594 3.597656 Z M 14.382812 0 L 7.160156 0 C 7.160156 1.800781 8.617188 3.257812 10.417969 3.257812 L 11.75 3.257812 L 11.75 4.546875 C 11.75 6.339844 13.203125 7.796875 15 7.800781 L 15 0.628906 C 15 0.285156 14.726562 0.00390625 14.382812 0 Z M 14.382812 0 "/>
</g>
</svg>
