<?xml version="1.0" encoding="UTF-8"?>
<svg xmlns="http://www.w3.org/2000/svg" xmlns:xlink="http://www.w3.org/1999/xlink" width="15pt" height="15pt" viewBox="0 0 15 15" version="1.1">
<g id="surface1">
<path style=" stroke:none;fill-rule:nonzero;fill:rgb(0%,0%,0%);fill-opacity:1;" d="M 0.953125 3.667969 C -0.375 5.578125 -0.210938 8.058594 0.804688 10.085938 C 0.828125 10.136719 0.855469 10.183594 0.878906 10.230469 C 0.894531 10.261719 0.910156 10.292969 0.925781 10.324219 C 0.933594 10.339844 0.945312 10.359375 0.957031 10.375 C 0.972656 10.40625 0.988281 10.4375 1.007812 10.46875 L 1.105469 10.636719 C 1.125 10.667969 1.140625 10.695312 1.160156 10.726562 C 1.195312 10.785156 1.234375 10.84375 1.273438 10.902344 C 1.289062 10.929688 1.304688 10.953125 1.320312 10.976562 C -1.710938 8.308594 -2.003906 3.691406 0.660156 0.660156 C 3.328125 -2.371094 7.945312 -2.664062 10.976562 0 C 11.023438 0.0664062 11.074219 0.132812 11.125 0.195312 C 11.144531 0.21875 11.164062 0.246094 11.179688 0.269531 L 11.316406 0.4375 C 11.335938 0.457031 11.351562 0.480469 11.371094 0.5 C 11.429688 0.574219 11.496094 0.644531 11.5625 0.71875 L 11.5625 0.722656 C 11.363281 3.714844 8.777344 5.984375 5.78125 5.785156 C 2.785156 5.585938 0.519531 2.996094 0.71875 0 C 0.765625 0.0507812 0.816406 0.101562 0.871094 0.152344 L 0.933594 0.214844 C 1.003906 0.28125 1.074219 0.34375 1.144531 0.40625 C 1.148438 0.40625 1.148438 0.40625 1.148438 0.410156 L 1.183594 0.441406 C 1.25 0.496094 1.3125 0.550781 1.378906 0.601562 L 1.457031 0.667969 C 1.511719 0.710938 1.566406 0.75 1.621094 0.792969 L 1.703125 0.859375 C 1.761719 0.902344 1.824219 0.945312 1.882812 0.988281 C 1.90625 1.003906 1.929688 1.019531 1.949219 1.035156 L 1.96875 1.046875 L 2.144531 1.164062 L 2.21875 1.214844 C 2.3125 1.273438 2.402344 1.328125 2.496094 1.382812 C 2.519531 1.394531 2.546875 1.410156 2.570312 1.425781 C 2.640625 1.464844 2.707031 1.503906 2.777344 1.539062 C 2.8125 1.5625 2.851562 1.578125 2.890625 1.597656 C 2.9375 1.625 2.988281 1.652344 3.039062 1.675781 C 2.574219 2.054688 1.894531 1.980469 1.519531 1.519531 C 1.144531 1.054688 1.214844 0.375 1.675781 0 C 1.699219 0.0078125 1.71875 0.0195312 1.738281 0.03125 C 1.8125 0.0664062 1.890625 0.101562 1.972656 0.140625 C 1.988281 0.144531 2.003906 0.152344 2.019531 0.160156 C 2.109375 0.199219 2.199219 0.238281 2.292969 0.273438 C 2.3125 0.28125 2.335938 0.289062 2.359375 0.296875 C 2.441406 0.332031 2.53125 0.363281 2.617188 0.394531 L 2.648438 0.40625 C 2.742188 0.4375 2.835938 0.46875 2.933594 0.5 C 2.957031 0.503906 2.980469 0.511719 3.003906 0.519531 C 3.105469 0.550781 3.199219 0.585938 3.300781 0.605469 C 9.71875 1.773438 11.585938 -3.253906 11.585938 -3.253906 C 10.019531 -1.214844 7.238281 -0.675781 4.601562 -1.273438 C 4.503906 -1.296875 4.40625 -1.328125 4.308594 -1.359375 C 5.050781 -5.835938 9.195312 -8.933594 13.703125 -8.371094 C 18.207031 -7.808594 21.46875 -3.792969 21.089844 0.730469 C 20.710938 5.257812 16.828125 8.675781 12.289062 8.480469 C 7.753906 8.28125 4.179688 4.539062 4.195312 0 L 4.15625 -0.015625 C 4.070312 -0.0429688 3.988281 -0.0742188 3.90625 -0.109375 C 3.898438 -0.0703125 3.890625 -0.0351562 3.882812 0 C 3.789062 -0.0390625 3.699219 -0.0742188 3.609375 -0.113281 C 3.589844 -0.121094 3.574219 -0.128906 3.554688 -0.136719 C 4.71875 -8.050781 12.015625 -13.570312 19.949219 -12.535156 C 27.878906 -11.5 33.515625 -4.289062 32.605469 3.65625 C 31.695312 11.605469 24.578125 17.355469 16.617188 16.570312 C 8.65625 15.789062 2.792969 8.761719 3.449219 0.789062 C 3.390625 0.761719 3.332031 0.730469 3.273438 0.703125 C 4.050781 -0.40625 5.574219 -0.679688 6.6875 0.0859375 C 7.804688 0.851562 8.09375 2.375 7.339844 3.496094 C 6.585938 4.617188 5.070312 4.925781 3.941406 4.183594 C 2.808594 3.441406 2.484375 1.929688 3.214844 0.789062 C 3.144531 0.753906 3.074219 0.710938 3 0.671875 C 2.980469 0.660156 2.957031 0.644531 2.933594 0.632812 C 3.96875 -4.632812 8.992188 -8.128906 14.289062 -7.269531 C 19.585938 -6.410156 23.25 -1.503906 22.566406 3.816406 C 21.882812 9.140625 17.105469 12.964844 11.761719 12.460938 C 6.417969 11.957031 2.4375 7.304688 2.761719 1.949219 L 6.519531 5.707031 C 6.496094 5.691406 6.476562 5.675781 6.453125 5.660156 C 9.570312 4.628906 12.9375 6.304688 13.988281 9.417969 C 15.039062 12.527344 13.382812 15.902344 10.277344 16.972656 C 7.171875 18.042969 3.785156 16.402344 2.699219 13.304688 C 1.613281 10.207031 3.230469 6.8125 6.324219 5.707031 C 6.296875 5.683594 6.269531 5.664062 6.238281 5.644531 C 6.183594 5.597656 6.128906 5.558594 6.074219 5.511719 L 6 5.453125 C 8.714844 3.039062 12.871094 3.265625 15.308594 5.960938 C 17.746094 8.652344 17.558594 12.808594 14.886719 15.269531 C 12.214844 17.734375 8.054688 17.582031 5.570312 14.933594 C 3.085938 12.28125 3.199219 8.125 5.824219 5.613281 L 5.609375 5.417969 L 5.546875 5.359375 C 5.496094 5.304688 5.441406 5.257812 5.390625 5.203125 L 5.328125 5.140625 C 6.667969 2.363281 9.980469 1.164062 12.789062 2.4375 C 15.597656 3.714844 16.871094 7 15.660156 9.835938 C 14.449219 12.671875 11.195312 14.023438 8.332031 12.875 C 5.46875 11.726562 4.042969 8.503906 5.125 5.613281 L 5.117188 5.605469 C 5.050781 5.53125 4.984375 5.457031 4.921875 5.382812 C 4.90625 5.363281 4.890625 5.34375 4.871094 5.324219 L 4.730469 5.148438 C 8.621094 -1.015625 16.75 -2.898438 22.957031 0.925781 C 29.160156 4.753906 31.128906 12.863281 27.363281 19.109375 C 23.601562 25.351562 15.511719 27.402344 9.230469 23.703125 C 2.945312 20.003906 0.816406 11.933594 4.449219 5.613281 C 1.34375 7.367188 0.816406 4.613281 1.984375 2.355469 M 5.074219 2.0625 C 4.113281 3.441406 4.167969 5.292969 4.917969 6.753906 C 2.171875 7.796875 -0.914062 6.585938 -2.214844 3.957031 C -3.515625 1.324219 -2.605469 -1.863281 -0.109375 -3.40625 C 2.382812 -4.953125 5.644531 -4.351562 7.421875 -2.015625 C 9.199219 0.320312 8.910156 3.625 6.753906 5.613281 C 6.898438 5.820312 7.054688 6.066406 7.25 6.234375 C 7.316406 6.308594 7.390625 6.382812 7.464844 6.457031 L 7.519531 6.515625 C 7.59375 6.582031 7.664062 6.648438 7.738281 6.71875 L 7.75 6.726562 C 9.660156 9.367188 9.183594 13.035156 6.667969 15.105469 C 4.148438 17.171875 0.457031 16.925781 -1.761719 14.539062 C -3.984375 12.152344 -3.964844 8.453125 -1.71875 6.089844 C 0.527344 3.726562 4.222656 3.519531 6.71875 5.613281 C 6.738281 5.628906 6.757812 5.644531 6.777344 5.660156 C 6.863281 5.726562 6.953125 5.792969 7.042969 5.859375 L 7.054688 5.863281 C 7.09375 5.890625 7.132812 5.917969 7.175781 5.945312 C 7.195312 5.957031 7.214844 5.972656 7.234375 5.984375 C 7.300781 6.023438 7.363281 6.066406 7.433594 6.105469 C 7.441406 6.109375 7.453125 6.117188 7.460938 6.121094 C 7.519531 6.15625 7.578125 6.1875 7.640625 6.21875 C 7.660156 6.230469 7.679688 6.238281 7.703125 6.25 C 7.742188 6.273438 7.785156 6.292969 7.824219 6.316406 L 7.84375 6.324219 C 7.929688 6.367188 8.015625 6.40625 8.097656 6.441406 C 8.121094 6.453125 8.140625 6.457031 8.15625 6.46875 C 8.226562 6.496094 8.296875 6.527344 8.367188 6.554688 C 8.398438 6.5625 8.425781 6.578125 8.457031 6.585938 C 8.519531 6.609375 8.589844 6.632812 8.652344 6.652344 L 8.738281 6.679688 C 8.828125 6.710938 8.921875 6.746094 9.019531 6.761719 C 13.851562 10.753906 15 6.9375 15 6.9375 C 13.96875 8.421875 11.96875 9.132812 9.835938 8.578125 C 9.167969 10.972656 6.851562 12.519531 4.382812 12.214844 C 1.917969 11.914062 0.0429688 9.851562 -0.0273438 7.367188 C -0.09375 4.882812 1.664062 2.71875 4.109375 2.28125 C 6.558594 1.84375 8.957031 3.261719 9.753906 5.613281 C 9.726562 5.605469 9.699219 5.597656 9.671875 5.589844 C 9.605469 5.566406 9.539062 5.542969 9.476562 5.519531 L 9.386719 5.484375 C 9.316406 5.457031 9.242188 5.433594 9.175781 5.402344 C 9.15625 5.390625 9.136719 5.386719 9.117188 5.375 C 9.03125 5.335938 8.941406 5.296875 8.859375 5.257812 L 8.730469 5.191406 L 8.65625 5.152344 C 9.210938 3.316406 11.125 2.253906 12.980469 2.757812 C 14.832031 3.261719 15.945312 5.148438 15.496094 7.011719 C 15.042969 8.878906 13.1875 10.046875 11.3125 9.648438 C 9.433594 9.25 8.214844 7.429688 8.5625 5.539062 C 8.496094 5.5 8.425781 5.457031 8.363281 5.417969 C 8.339844 5.40625 8.320312 5.390625 8.300781 5.378906 L 8.171875 5.292969 C 8.082031 5.230469 7.992188 5.164062 7.902344 5.097656 C 7.882812 5.078125 7.863281 5.0625 7.84375 5.046875 C 6.90625 4.3125 6.167969 3.304688 5.820312 2.164062 C 5.449219 0.980469 5.53125 -0.351562 6.167969 -1.429688 M 8.851562 -1.519531 C 8.28125 -0.6875 8.230469 0.347656 8.621094 1.265625 C 9.035156 2.242188 9.886719 3.011719 10.875 3.371094 C 10.914062 3.386719 10.953125 3.402344 10.996094 3.417969 L 11.050781 3.433594 C 11.109375 3.453125 11.167969 3.472656 11.226562 3.484375 C 13.964844 4.015625 14.707031 2.078125 14.90625 1.796875 C 14.253906 2.730469 13.160156 2.957031 11.820312 2.628906 C 12.671875 1.695312 14.015625 1.386719 15.191406 1.859375 C 16.363281 2.332031 17.121094 3.484375 17.089844 4.75 C 17.058594 6.015625 16.242188 7.125 15.046875 7.539062 C 13.851562 7.949219 12.523438 7.578125 11.71875 6.601562 L 15.800781 10.679688 C 14.601562 9.769531 13.855469 8.035156 14.640625 6.617188 "/>
</g>
</svg>
