<?xml version="1.0" encoding="UTF-8"?>
<svg xmlns="http://www.w3.org/2000/svg" xmlns:xlink="http://www.w3.org/1999/xlink" width="15pt" height="15pt" viewBox="0 0 15 15" version="1.1">
<g id="surface1">
<path style=" stroke:none;fill-rule:nonzero;fill:rgb(0%,0%,0%);fill-opacity:1;" d="M 12.78125 12.78125 L 10.558594 12.78125 L 10.558594 9.300781 C 10.558594 8.472656 10.542969 7.402344 9.402344 7.402344 C 8.242188 7.402344 8.066406 8.308594 8.066406 9.242188 L 8.066406 12.78125 L 5.84375 12.78125 L 5.84375 5.625 L 7.976562 5.625 L 7.976562 6.601562 L 8.007812 6.601562 C 8.304688 6.039062 9.03125 5.445312 10.113281 5.445312 C 12.363281 5.445312 12.78125 6.925781 12.78125 8.855469 Z M 3.335938 4.644531 C 2.621094 4.644531 2.046875 4.066406 2.046875 3.355469 C 2.046875 2.644531 2.621094 2.066406 3.335938 2.066406 C 4.046875 2.066406 4.625 2.644531 4.625 3.355469 C 4.625 4.066406 4.046875 4.644531 3.335938 4.644531 Z M 4.449219 12.78125 L 2.222656 12.78125 L 2.222656 5.625 L 4.449219 5.625 Z M 13.890625 0 L 1.105469 0 C 0.496094 0 0 0.484375 0 1.082031 L 0 13.917969 C 0 14.515625 0.496094 15 1.105469 15 L 13.890625 15 C 14.5 15 15 14.515625 15 13.917969 L 15 1.082031 C 15 0.484375 14.5 0 13.890625 0 Z M 13.890625 0 "/>
</g>
</svg>
