<?xml version="1.0" encoding="UTF-8"?>
<svg xmlns="http://www.w3.org/2000/svg" xmlns:xlink="http://www.w3.org/1999/xlink" width="15pt" height="15pt" viewBox="0 0 15 15" version="1.1">
<g id="surface1">
<path style=" stroke:none;fill-rule:nonzero;fill:rgb(0%,0%,0%);fill-opacity:1;" d="M 7.816406 0 C 7.71875 0 7.617188 0.00390625 7.515625 0.0117188 C 4.875 0.222656 5.574219 3.015625 5.535156 3.949219 C 5.484375 4.632812 5.347656 5.171875 4.878906 5.835938 C 4.324219 6.492188 3.546875 7.554688 3.179688 8.664062 C 3.007812 9.183594 2.921875 9.714844 3 10.21875 C 0.179688 10.195312 -2.089844 7.886719 -2.066406 5.066406 C -2.042969 2.246094 0.261719 -0.0234375 3.085938 0 C 2.921875 0.167969 2.804688 0.375 2.671875 0.523438 C 2.546875 0.648438 2.367188 0.691406 2.171875 0.773438 C 1.976562 0.859375 1.761719 0.941406 1.632812 1.199219 C 1.578125 1.316406 1.546875 1.445312 1.550781 1.574219 C 1.550781 1.699219 1.566406 1.824219 1.585938 1.910156 C 1.621094 2.160156 1.65625 2.367188 1.609375 2.515625 C 1.453125 2.941406 1.433594 3.234375 1.542969 3.445312 C 1.652344 3.652344 1.878906 3.738281 2.128906 3.820312 C 2.636719 3.945312 3.324219 3.90625 3.863281 4.195312 C 4.441406 4.484375 5.03125 4.613281 5.5 4.488281 C 5.828125 4.417969 6.105469 4.199219 6.253906 3.898438 C 6.621094 3.894531 7.023438 3.730469 7.667969 3.6875 C 8.105469 3.652344 8.652344 3.855469 9.277344 3.8125 C 9.292969 3.898438 9.316406 3.9375 9.347656 4.023438 L 9.351562 4.023438 C 9.59375 4.511719 10.046875 4.730469 10.527344 4.691406 C 11.011719 4.65625 11.523438 4.359375 11.9375 3.875 C 12.332031 3.398438 12.992188 3.199219 13.425781 2.9375 C 13.640625 2.8125 13.816406 2.644531 13.832031 2.40625 C 13.84375 2.15625 13.707031 1.898438 13.382812 1.542969 L 13.382812 1.480469 C 13.277344 1.355469 13.226562 1.148438 13.171875 0.902344 C 13.117188 0.652344 13.058594 0.410156 12.863281 0.25 C 12.824219 0.214844 12.785156 0.207031 12.746094 0.164062 C 12.710938 0.117188 12.695312 0.0585938 12.703125 0 C 12.972656 -0.796875 12.871094 -1.59375 12.597656 -2.308594 C 12.261719 -3.191406 11.679688 -3.957031 11.238281 -4.484375 C 10.738281 -5.113281 10.25 -5.707031 10.261719 -6.589844 C 10.277344 -7.9375 10.410156 -10.421875 8.046875 -10.425781 Z M 8.144531 2.128906 L 8.152344 2.128906 C 8.285156 2.128906 8.402344 2.167969 8.519531 2.25 C 8.636719 2.335938 8.726562 2.460938 8.792969 2.585938 C 8.859375 2.746094 8.890625 2.871094 8.894531 3.039062 C 8.894531 3.023438 8.898438 3.011719 8.898438 3 L 8.898438 3.066406 C 8.054688 3.070312 7.363281 2.386719 7.359375 1.539062 C 7.355469 0.691406 8.039062 0.00390625 8.886719 0 L 8.882812 -0.015625 C 8.71875 -0.542969 8.960938 -1.109375 9.449219 -1.359375 C 9.941406 -1.609375 10.542969 -1.46875 10.871094 -1.023438 C 11.199219 -0.582031 11.160156 0.0351562 10.777344 0.429688 C 10.394531 0.828125 9.78125 0.890625 9.324219 0.582031 L 9.769531 1.023438 C 9.703125 0.996094 9.644531 0.984375 9.59375 0.941406 C 9.578125 0.96875 9.566406 0.996094 9.550781 1.023438 C 9.582031 0.988281 9.640625 0.941406 9.664062 0.902344 C 9.699219 0.820312 9.714844 0.734375 9.71875 0.648438 L 9.71875 0.636719 C 9.679688 0.789062 9.589844 0.925781 9.46875 1.023438 C 9.441406 0.941406 9.40625 0.898438 9.355469 0.816406 C 9.304688 0.773438 9.25 0.734375 9.1875 0.734375 L 9.179688 0.734375 C 9.121094 0.734375 9.070312 0.753906 9.015625 0.816406 C 9.148438 0.875 9.25 0.992188 9.292969 1.136719 C 9.332031 1.277344 9.308594 1.429688 9.222656 1.554688 L 9.222656 1.566406 C 9.226562 1.621094 9.230469 1.675781 9.234375 1.734375 C 9.117188 1.691406 8.960938 1.648438 8.855469 1.605469 C 9.351562 1.851562 9.558594 2.445312 9.328125 2.945312 C 9.097656 3.449219 8.511719 3.675781 8.003906 3.460938 C 7.496094 3.25 7.25 2.671875 7.445312 2.15625 C 7.640625 1.640625 8.210938 1.375 8.730469 1.554688 L 8.730469 1.542969 C 8.734375 0.929688 9.230469 0.4375 9.84375 0.441406 C 10.453125 0.441406 10.945312 0.9375 10.945312 1.546875 C 10.945312 2.15625 10.453125 2.652344 9.84375 2.65625 C 9.230469 2.65625 8.734375 2.164062 8.730469 1.554688 C 8.78125 1.417969 8.875 1.300781 9 1.21875 C 9.09375 3.367188 7.425781 5.183594 5.277344 5.277344 C 3.128906 5.371094 1.3125 3.703125 1.21875 1.554688 Z M 6.292969 2.164062 L 6.316406 2.164062 C 6.40625 2.164062 6.484375 2.195312 6.566406 2.25 C 6.65625 2.328125 6.730469 2.429688 6.78125 2.539062 C 6.835938 2.664062 6.867188 2.789062 6.875 2.957031 L 6.875 2.960938 C 6.882812 3.042969 6.878906 3.085938 6.875 3.125 L 6.875 3.175781 C 6.855469 3.179688 6.839844 3.1875 6.824219 3.191406 C 6.730469 3.226562 6.652344 3.273438 6.578125 3.316406 C 6.585938 3.257812 6.585938 3.203125 6.578125 3.148438 L 6.578125 3.140625 C 6.574219 3.054688 6.554688 3.015625 6.527344 2.929688 C 6.488281 3 6.433594 3.050781 6.363281 3.085938 L 6.347656 3.085938 C 6.304688 3.089844 6.265625 3.109375 6.234375 3.167969 C 6.359375 3.195312 6.460938 3.289062 6.496094 3.414062 C 6.53125 3.535156 6.496094 3.671875 6.402344 3.757812 L 6.402344 3.769531 C 6.410156 3.851562 6.425781 3.894531 6.453125 3.976562 C 6.480469 4.0625 6.511719 4.101562 6.554688 4.144531 C 6.5625 4.148438 6.566406 4.15625 6.578125 4.160156 C 6.53125 4.195312 6.503906 4.203125 6.464844 4.246094 C 6.917969 4.234375 7.292969 4.589844 7.304688 5.042969 C 7.316406 5.492188 6.960938 5.871094 6.507812 5.882812 L 7.617188 6.988281 L 8.714844 6.988281 C 8.660156 7.214844 8.90625 7.429688 9.269531 7.472656 C 9.632812 7.515625 9.980469 7.371094 10.046875 7.148438 C 10.113281 6.925781 9.878906 6.707031 9.515625 6.65625 C 9.597656 6.570312 9.679688 6.53125 9.777344 6.53125 Z M 7.152344 3.230469 C 7.359375 3.230469 7.609375 3.273438 7.910156 3.480469 C 8.09375 3.605469 8.238281 3.648438 8.566406 3.773438 L 8.570312 3.773438 C 8.730469 3.859375 8.824219 3.9375 8.867188 4.023438 L 8.867188 3.941406 C 9.617188 5.277344 9.140625 6.972656 7.804688 7.722656 C 6.464844 8.46875 4.773438 7.992188 4.023438 6.65625 C 3.945312 6.847656 3.699219 7.058594 3.359375 7.179688 L 3.359375 7.183594 C 3.191406 7.265625 3.046875 7.390625 2.875 7.472656 C 2.703125 7.558594 2.507812 7.65625 2.242188 7.640625 C 2.855469 7.652344 3.347656 8.160156 3.335938 8.773438 C 3.324219 9.390625 2.816406 9.878906 2.199219 9.867188 C 2.078125 9.785156 1.972656 9.660156 1.816406 9.578125 L 1.816406 9.574219 L 1.8125 9.574219 C 1.5625 9.421875 1.429688 9.253906 1.386719 9.132812 C 1.339844 8.964844 1.382812 8.835938 1.503906 8.757812 C 1.644531 8.671875 1.742188 8.585938 1.808594 8.546875 C 1.871094 8.5 1.898438 8.484375 1.917969 8.464844 L 1.917969 8.460938 C 2.023438 8.335938 2.191406 8.167969 2.441406 8.085938 C 2.53125 8.0625 2.625 8.046875 2.734375 8.046875 Z M 8.902344 4.570312 C 9.125 5.457031 9.648438 6.742188 9.984375 7.367188 C 10.164062 7.699219 10.519531 8.402344 10.671875 9.253906 C 10.769531 9.253906 10.878906 9.265625 10.996094 9.296875 C 11.398438 8.25 10.652344 7.128906 10.3125 6.816406 C 10.175781 6.691406 10.167969 6.609375 10.238281 6.609375 C 10.605469 6.941406 11.089844 7.589844 11.265625 8.332031 C 11.347656 8.664062 11.367188 9.019531 11.277344 9.375 C 11.320312 9.390625 11.363281 9.410156 11.40625 9.417969 C 12.050781 9.75 12.289062 10.003906 12.175781 10.375 L 12.175781 10.351562 C 12.136719 10.347656 12.101562 10.351562 12.0625 10.351562 L 12.054688 10.351562 C 12.148438 10.058594 11.9375 9.835938 11.386719 9.585938 C 10.816406 9.335938 10.359375 9.375 10.28125 9.875 C 10.277344 9.902344 10.273438 9.917969 10.269531 9.960938 C 10.226562 9.972656 10.183594 9.992188 10.140625 10 C 9.871094 10.167969 9.726562 10.417969 9.644531 10.742188 C 9.5625 11.074219 9.539062 11.464844 9.515625 11.910156 C 9.503906 12.121094 9.410156 12.4375 9.316406 12.753906 C 8.378906 13.425781 7.078125 13.71875 5.972656 12.964844 C 5.957031 13.292969 5.839844 13.609375 5.640625 13.871094 C 5.753906 13.871094 5.851562 13.851562 5.929688 13.828125 C 5.941406 11.648438 7.71875 9.890625 9.902344 9.902344 C 12.082031 9.914062 13.839844 11.691406 13.828125 13.871094 C 13.894531 13.703125 13.828125 13.433594 13.613281 13.144531 C 13.398438 12.851562 13.03125 12.523438 12.496094 12.191406 C 12.101562 11.941406 11.878906 11.648438 11.777344 11.320312 C 11.671875 10.988281 11.6875 10.640625 11.765625 10.292969 C 11.921875 9.625 12.3125 8.972656 12.5625 8.566406 C 12.628906 8.523438 12.585938 8.648438 12.308594 9.175781 C 12.0625 9.644531 11.597656 10.734375 12.234375 11.582031 C 13.496094 9.34375 16.234375 8.398438 18.609375 9.386719 C 20.984375 10.378906 22.242188 12.988281 21.539062 15.460938 C 20.835938 17.9375 18.394531 19.492188 15.855469 19.089844 C 13.316406 18.683594 11.480469 16.441406 11.582031 13.871094 C 11.9375 13.070312 12.671875 11.679688 12.730469 10.578125 C 12.761719 10.601562 12.867188 10.664062 12.910156 10.703125 C 13.046875 10.789062 13.148438 10.914062 13.28125 10.996094 C 13.410156 11.121094 13.578125 11.203125 13.828125 11.203125 C 13.851562 11.207031 13.875 11.207031 13.894531 11.207031 C 14.152344 11.207031 14.351562 11.125 14.519531 11.039062 C 14.699219 10.957031 14.84375 10.832031 14.980469 10.789062 L 14.984375 10.789062 C 15.277344 10.707031 15.507812 10.539062 15.636719 10.351562 Z M 10.265625 10.167969 C 10.289062 10.542969 10.480469 10.945312 10.816406 11.03125 C 11.183594 11.113281 11.714844 10.820312 11.9375 10.550781 L 12.070312 10.546875 C 12.265625 10.539062 12.429688 10.550781 12.597656 10.710938 L 12.601562 10.714844 C 12.730469 10.839844 12.789062 11.046875 12.84375 11.261719 C 12.898438 11.511719 12.941406 11.75 13.101562 11.929688 C 13.402344 12.257812 13.503906 12.496094 13.496094 12.640625 L 13.5 12.636719 L 13.5 12.648438 L 13.496094 12.640625 C 13.488281 12.804688 13.382812 12.886719 13.1875 13.011719 C 12.792969 13.261719 12.09375 13.457031 11.652344 13.992188 C 11.265625 14.453125 10.792969 14.707031 10.378906 14.738281 C 9.964844 14.769531 9.605469 14.613281 9.394531 14.175781 L 9.390625 14.175781 C 9.261719 13.925781 9.316406 13.535156 9.425781 13.117188 C 9.535156 12.699219 9.695312 12.277344 9.714844 11.933594 C 9.738281 11.484375 9.761719 11.097656 9.835938 10.796875 C 9.914062 10.507812 10.03125 10.300781 10.238281 10.183594 L 10.265625 10.171875 Z M 3.507812 10.199219 L 3.515625 10.199219 C 3.546875 10.199219 3.578125 10.203125 3.613281 10.207031 C 3.847656 10.242188 4.054688 10.417969 4.25 10.679688 L 4.820312 11.71875 C 4.972656 12.054688 5.292969 12.386719 5.566406 12.742188 C 5.835938 13.117188 6.046875 13.449219 6.019531 13.722656 L 6.019531 13.726562 C 5.984375 14.191406 5.71875 14.445312 5.316406 14.535156 C 4.914062 14.621094 4.367188 14.539062 3.820312 14.246094 C 3.214844 13.910156 2.496094 13.953125 2.035156 13.871094 C 1.804688 13.828125 1.652344 13.746094 1.582031 13.621094 C 1.515625 13.496094 1.511719 13.246094 1.660156 12.851562 L 1.660156 12.847656 C 1.734375 12.640625 1.679688 12.378906 1.644531 12.148438 C 1.609375 11.898438 1.59375 11.703125 1.671875 11.5625 C 1.769531 11.351562 1.917969 11.3125 2.101562 11.226562 C 2.285156 11.144531 2.503906 11.101562 2.675781 10.933594 C 2.835938 10.765625 2.953125 10.558594 3.09375 10.410156 C 3.210938 10.285156 3.332031 10.199219 3.507812 10.199219 Z M 7.980469 4.527344 C 7.710938 4.652344 7.390625 4.863281 7.050781 4.863281 C 6.714844 4.863281 6.445312 4.695312 6.25 4.570312 C 6.15625 4.488281 6.078125 4.402344 6.019531 4.363281 C 5.917969 4.277344 5.929688 4.152344 5.972656 4.152344 C 6.039062 4.164062 6.054688 4.238281 6.097656 4.277344 C 6.15625 4.320312 6.230469 4.402344 6.320312 4.488281 C 6.503906 4.613281 6.746094 4.777344 7.050781 4.777344 C 7.355469 4.777344 7.710938 4.613281 7.925781 4.488281 C 8.046875 4.402344 8.203125 4.277344 8.328125 4.195312 C 8.425781 4.109375 8.421875 4.027344 8.503906 4.027344 C 8.585938 4.039062 8.527344 4.113281 8.414062 4.234375 C 10.472656 3.507812 12.773438 4.183594 14.109375 5.914062 C 15.445312 7.644531 15.515625 10.039062 14.289062 11.851562 C 13.058594 13.660156 10.808594 14.472656 8.703125 13.871094 Z M 7.304688 3.539062 L 7.304688 3.523438 C 7.300781 3.511719 7.3125 3.5 7.324219 3.492188 C 7.371094 3.46875 7.4375 3.476562 7.484375 3.496094 C 7.527344 3.496094 7.585938 3.539062 7.578125 3.582031 C 7.578125 3.609375 7.527344 3.621094 7.496094 3.621094 C 7.460938 3.621094 7.4375 3.59375 7.40625 3.578125 C 7.375 3.566406 7.316406 3.574219 7.304688 3.539062 Z M 6.960938 3.539062 C 6.949219 3.574219 6.890625 3.570312 6.859375 3.578125 C 6.828125 3.59375 6.804688 3.621094 6.769531 3.621094 C 6.738281 3.621094 6.6875 3.609375 6.683594 3.578125 C 6.679688 3.539062 6.738281 3.496094 6.777344 3.496094 C 6.828125 3.476562 6.894531 3.46875 6.941406 3.492188 C 6.953125 3.5 6.964844 3.511719 6.960938 3.523438 Z M 6.960938 3.539062 "/>
</g>
</svg>
