<?xml version="1.0" encoding="UTF-8"?>
<svg xmlns="http://www.w3.org/2000/svg" xmlns:xlink="http://www.w3.org/1999/xlink" width="15pt" height="15pt" viewBox="0 0 15 15" version="1.1">
<g id="surface1">
<path style=" stroke:none;fill-rule:nonzero;fill:rgb(0%,0%,0%);fill-opacity:1;" d="M 10.746094 5.972656 C 9.957031 2.484375 8.089844 1.339844 7.886719 0.898438 C 7.710938 0.652344 7.554688 0.304688 7.429688 0 C 7.40625 0.308594 7.394531 0.429688 7.101562 0.738281 C 6.648438 1.09375 4.328125 3.042969 4.140625 7.003906 C 3.960938 10.699219 6.808594 12.898438 7.195312 13.179688 L 7.238281 13.210938 C -5.914062 33.238281 -32.246094 39.792969 -53.25 28.265625 C -74.253906 16.742188 -82.871094 -8.992188 -73.042969 -30.84375 C -63.214844 -52.691406 -38.246094 -63.316406 -15.6875 -55.25 C 6.871094 -47.179688 19.441406 -23.125 13.179688 0 L 13.480469 0 C 13.550781 -0.644531 13.65625 -1.285156 13.800781 -1.917969 C 14.058594 -2.105469 14.175781 -2.207031 14.332031 -2.351562 C 14.980469 2.253906 11.773438 6.515625 7.164062 7.164062 C 2.558594 7.816406 -1.703125 4.605469 -2.351562 0 C -2.34375 -0.507812 -2.417969 -1.039062 -2.476562 -1.386719 Z M 7.410156 11.09375 C 7.410156 11.09375 7.410156 5.910156 7.582031 5.914062 C 7.714844 5.914062 7.890625 12.597656 7.890625 12.597656 C 7.652344 12.570312 7.410156 11.496094 7.410156 11.09375 Z M 7.410156 11.09375 "/>
</g>
</svg>
