<?xml version="1.0" encoding="UTF-8"?>
<svg xmlns="http://www.w3.org/2000/svg" xmlns:xlink="http://www.w3.org/1999/xlink" width="15pt" height="15pt" viewBox="0 0 15 15" version="1.1">
<g id="surface1">
<path style=" stroke:none;fill-rule:nonzero;fill:rgb(0%,0%,0%);fill-opacity:1;" d="M 10.253906 3.4375 C 10.179688 3.4375 10.132812 3.445312 10.082031 3.457031 L 10.082031 3.46875 L 10.089844 3.46875 C 10.125 3.53125 10.183594 3.578125 10.222656 3.636719 C 10.257812 3.703125 10.285156 3.769531 10.320312 3.835938 L 10.328125 3.828125 C 10.386719 3.785156 10.417969 3.71875 10.417969 3.621094 C 10.390625 3.589844 10.386719 3.5625 10.367188 3.53125 C 10.34375 3.492188 10.289062 3.46875 10.253906 3.4375 Z M 3.605469 11.683594 L 3.027344 11.683594 C 1.375 8 0.4375 4.035156 0.269531 0 L 0.265625 0 L -0.617188 2.757812 L 1.53125 2.757812 L 0.65625 0 L 0.648438 0 C 1.570312 -0.0273438 2.488281 -0.0273438 3.40625 0 L 0 0 C 0.0351562 -1.230469 0.121094 -2.382812 0.257812 -3.457031 L 0.976562 -3.457031 L 1.808594 -0.917969 L 1.8125 -0.917969 L 2.65625 -3.457031 L 3.339844 -3.457031 C 3.492188 -2.195312 3.582031 -1.042969 3.609375 0 Z M 6.117188 9.132812 C 5.878906 10.414062 5.570312 11.34375 5.183594 11.921875 C 4.882812 12.371094 4.554688 12.59375 4.195312 12.59375 C 4.097656 12.59375 3.984375 12.5625 3.839844 12.507812 L 3.839844 12.199219 C 3.910156 12.207031 3.992188 12.214844 4.082031 12.214844 C 4.25 12.214844 4.382812 12.167969 4.488281 12.074219 C 4.609375 11.960938 4.671875 11.835938 4.671875 11.695312 C 4.671875 11.601562 4.625 11.402344 4.527344 11.105469 L 3.894531 9.132812 L 4.460938 9.132812 L 4.917969 10.609375 C 5.019531 10.945312 5.0625 11.179688 5.046875 11.3125 C 5.296875 10.644531 5.46875 9.917969 5.566406 9.132812 Z M 13.820312 11.683594 L 12.175781 11.683594 L 12.175781 8.226562 L 12.730469 8.226562 L 12.730469 11.257812 L 13.820312 11.257812 Z M 11.746094 11.769531 L 11.109375 11.457031 C 11.167969 11.410156 11.21875 11.359375 11.269531 11.300781 C 11.539062 10.984375 11.675781 10.515625 11.675781 9.890625 C 11.675781 8.75 11.226562 8.175781 10.328125 8.175781 C 9.886719 8.175781 9.542969 8.320312 9.296875 8.609375 C 9.027344 8.929688 8.890625 9.394531 8.890625 10.015625 C 8.890625 10.621094 9.011719 11.066406 9.25 11.351562 C 9.46875 11.609375 9.800781 11.734375 10.242188 11.734375 C 10.40625 11.734375 10.558594 11.714844 10.695312 11.675781 L 11.523438 12.15625 Z M 9.6875 10.992188 C 9.546875 10.765625 9.476562 10.40625 9.476562 9.90625 C 9.476562 9.035156 9.742188 8.601562 10.269531 8.601562 C 10.546875 8.601562 10.75 8.707031 10.882812 8.914062 C 11.019531 9.140625 11.089844 9.5 11.089844 9.992188 C 11.089844 10.867188 10.828125 11.308594 10.296875 11.308594 C 10.019531 11.308594 9.816406 11.203125 9.6875 10.996094 Z M 8.652344 10.726562 C 8.652344 11.019531 8.542969 11.261719 8.328125 11.449219 C 8.113281 11.636719 7.828125 11.730469 7.464844 11.730469 C 7.125 11.730469 6.796875 11.625 6.480469 11.410156 L 6.628906 11.109375 C 6.902344 11.25 7.148438 11.316406 7.371094 11.316406 C 7.578125 11.316406 7.742188 11.269531 7.863281 11.179688 C 4.773438 10.261719 3.015625 7.019531 3.929688 3.929688 C 4.847656 0.84375 8.09375 -0.914062 11.179688 0 C 11.179688 -0.207031 11.035156 -0.382812 10.773438 -0.527344 C 10.53125 -0.660156 10.046875 -0.9375 10.046875 -0.9375 C 9.78125 -1.128906 9.652344 -1.335938 9.652344 -1.675781 C 9.652344 -1.957031 9.75 -2.179688 9.945312 -2.351562 C 10.140625 -2.527344 10.394531 -2.613281 10.707031 -2.613281 C 11.027344 -2.613281 11.320312 -2.527344 11.582031 -2.355469 L 11.449219 -2.058594 C 11.871094 -1.417969 11.8125 -0.574219 11.304688 0 C 11.128906 0 10.992188 0.0429688 10.898438 0.128906 C 10.984375 0.0390625 11.101562 -0.0078125 11.226562 0 C 11.226562 0.203125 11.371094 0.382812 11.640625 0.53125 C 11.886719 0.664062 12.382812 0.949219 12.382812 0.949219 C 12.652344 1.140625 12.789062 1.34375 12.789062 1.679688 Z M 14.515625 7.070312 C 14.179688 7.0625 13.921875 7.09375 13.703125 7.1875 C 13.640625 7.210938 13.542969 7.210938 13.53125 7.292969 C 13.566406 7.324219 13.574219 7.378906 13.601562 7.425781 C 13.652344 7.507812 13.738281 7.621094 13.816406 7.679688 C 13.90625 7.75 13.992188 7.8125 14.085938 7.875 C 14.246094 7.972656 14.433594 8.03125 14.589844 8.132812 C 14.683594 8.191406 14.773438 8.265625 14.867188 8.328125 C 14.910156 8.359375 14.941406 8.417969 15 8.4375 L 15 8.421875 C 14.972656 8.386719 14.960938 8.332031 14.933594 8.289062 C 14.890625 8.25 14.851562 8.210938 14.808594 8.167969 C 12.554688 8.285156 10.628906 6.550781 10.515625 4.296875 C 10.398438 2.039062 12.132812 0.117188 14.386719 0 C 14.253906 -0.0898438 13.960938 -0.21875 13.90625 -0.371094 L 13.898438 -0.378906 C 13.988281 -0.390625 14.097656 -0.421875 14.1875 -0.445312 C 14.328125 -0.484375 14.457031 -0.476562 14.605469 -0.511719 C 14.671875 -0.53125 14.738281 -0.550781 14.804688 -0.570312 L 14.804688 -0.609375 C 14.730469 -0.683594 14.671875 -0.785156 14.59375 -0.855469 C 14.449219 -0.554688 14.277344 -0.269531 14.082031 0 C 13.949219 -0.0820312 13.785156 -0.136719 13.644531 -0.207031 C 13.59375 -0.234375 13.511719 -0.246094 13.484375 -0.289062 C 13.40625 -0.378906 13.363281 -0.5 13.3125 -0.609375 C 18.082031 -4.273438 24.902344 -3.449219 28.667969 1.242188 C 32.429688 5.929688 31.757812 12.769531 27.148438 16.632812 C 22.539062 20.496094 15.6875 19.96875 11.726562 15.445312 C 7.765625 10.917969 8.144531 4.058594 12.585938 0 C 12.507812 -0.164062 12.464844 -0.328125 12.371094 -0.476562 C 11.941406 -1.1875 11.472656 -1.617188 10.753906 -2.039062 C 10.601562 -2.125 10.417969 -2.164062 10.21875 -2.210938 C 10.117188 -2.214844 10.011719 -2.222656 9.90625 -2.226562 C 9.839844 -2.257812 9.773438 -2.335938 9.714844 -2.375 C 9.476562 -2.523438 8.863281 -2.847656 8.6875 -2.417969 C 8.574219 -2.148438 8.855469 -1.878906 8.949219 -1.742188 C 9.023438 -1.648438 9.113281 -1.539062 9.164062 -1.429688 C 9.191406 -1.359375 9.199219 -1.285156 9.230469 -1.207031 C 9.296875 -1.023438 9.359375 -0.820312 9.445312 -0.648438 C 9.492188 -0.558594 9.542969 -0.46875 9.601562 -0.390625 C 9.636719 -0.34375 9.691406 -0.324219 9.707031 -0.246094 C 9.648438 -0.164062 9.644531 -0.0390625 9.609375 0.0664062 C 9.460938 0.539062 9.519531 1.125 9.730469 1.472656 C 9.796875 1.574219 9.957031 1.804688 10.171875 1.71875 C 10.359375 1.640625 10.316406 1.40625 10.371094 1.195312 C 10.382812 1.144531 10.375 1.113281 10.398438 1.078125 L 10.398438 1.085938 C 10.457031 1.203125 10.515625 1.316406 10.570312 1.433594 C 10.699219 1.640625 10.925781 1.851562 11.113281 1.992188 C 11.214844 2.070312 11.292969 2.199219 11.417969 2.246094 L 11.417969 2.234375 L 11.40625 2.234375 C 11.382812 2.195312 11.34375 2.179688 11.3125 2.148438 C 12.824219 2.21875 13.992188 3.5 13.925781 5.011719 C 13.855469 6.523438 12.574219 7.695312 11.0625 7.625 C 10.992188 7.492188 10.9375 7.351562 10.878906 7.222656 C 10.855469 7.171875 10.855469 7.097656 10.8125 7.074219 C 10.75 7.164062 10.660156 7.242188 10.613281 7.355469 C 10.535156 7.535156 10.527344 7.757812 10.496094 7.988281 C 10.480469 7.992188 10.488281 7.988281 10.480469 7.996094 C 10.34375 7.964844 10.300781 7.824219 10.25 7.707031 C 10.125 7.410156 10.105469 6.933594 10.210938 6.59375 C 10.242188 6.503906 10.367188 6.230469 10.316406 6.144531 C 10.289062 6.066406 10.207031 6.019531 10.164062 5.957031 C 10.621094 5.449219 11.363281 5.300781 11.980469 5.597656 C 12.597656 5.894531 12.949219 6.5625 12.839844 7.238281 C 12.730469 7.917969 12.191406 8.441406 11.511719 8.53125 C 10.832031 8.621094 10.175781 8.25 9.894531 7.625 C 9.796875 7.390625 9.746094 7.132812 9.636719 6.898438 C 9.585938 6.789062 9.5 6.675781 9.429688 6.578125 C 9.347656 6.464844 9.261719 6.386719 9.199219 6.253906 C 9.175781 6.207031 9.148438 6.132812 9.179688 6.082031 C 9.191406 6.046875 9.207031 6.035156 9.238281 6.023438 C 9.296875 5.980469 9.449219 6.039062 9.503906 6.0625 C 9.65625 6.125 9.789062 6.183594 9.917969 6.273438 C 9.976562 6.3125 10.039062 6.394531 10.113281 6.414062 L 10.203125 6.414062 C 10.335938 6.441406 10.484375 6.421875 10.609375 6.460938 C 10.832031 6.53125 11.03125 6.632812 11.210938 6.746094 C 12.636719 7.460938 13.449219 8.996094 13.234375 10.574219 C 13.019531 12.152344 11.828125 13.417969 10.265625 13.726562 C 8.703125 14.03125 7.117188 13.3125 6.324219 11.933594 C 5.527344 10.554688 5.699219 8.820312 6.746094 7.625 C 6.796875 7.71875 6.820312 7.808594 6.863281 7.910156 C 6.953125 8.113281 7.058594 8.324219 7.148438 8.523438 C 7.234375 8.71875 7.320312 8.921875 7.445312 9.082031 C 7.507812 9.171875 7.761719 9.214844 7.871094 9.261719 C 7.957031 9.300781 8.085938 9.332031 8.160156 9.378906 C 8.304688 9.46875 8.445312 9.566406 8.578125 9.664062 C 8.648438 9.710938 8.855469 9.816406 8.867188 9.898438 Z M 14.515625 7.070312 "/>
</g>
</svg>
