<?xml version="1.0" encoding="UTF-8"?>
<svg xmlns="http://www.w3.org/2000/svg" xmlns:xlink="http://www.w3.org/1999/xlink" width="15pt" height="15pt" viewBox="0 0 15 15" version="1.1">
<g id="surface1">
<path style=" stroke:none;fill-rule:nonzero;fill:rgb(0%,0%,0%);fill-opacity:1;" d="M 7.5 15 C 7.296875 15 7.097656 14.949219 6.921875 14.84375 L 5.085938 13.761719 C 4.8125 13.605469 4.949219 13.550781 5.039062 13.519531 C 5.402344 13.394531 5.476562 13.363281 5.867188 13.144531 C 5.90625 13.121094 5.960938 13.128906 6.003906 13.152344 L 7.414062 13.992188 C 7.464844 14.019531 7.535156 14.019531 7.582031 13.992188 L 13.082031 10.816406 C 13.132812 10.789062 13.164062 10.730469 13.164062 10.667969 L 13.164062 4.324219 C 13.164062 4.265625 13.132812 4.207031 13.078125 4.175781 L 7.585938 1.003906 C 7.535156 0.976562 7.464844 0.976562 7.414062 1.003906 L 1.921875 4.175781 C 1.867188 4.207031 1.835938 4.265625 1.835938 4.324219 L 1.835938 10.667969 C 1.835938 10.730469 1.867188 10.789062 1.921875 10.816406 L 3.425781 11.6875 C 4.246094 12.09375 4.746094 11.613281 4.746094 11.128906 L 4.746094 4.867188 C 4.746094 4.777344 4.816406 4.707031 4.90625 4.707031 L 5.601562 4.707031 C 5.6875 4.707031 5.761719 4.777344 5.761719 4.867188 L 5.761719 11.128906 C 5.761719 12.21875 5.167969 12.84375 4.132812 12.84375 C 3.816406 12.84375 3.566406 12.84375 2.867188 12.5 L 1.425781 11.671875 C 1.070312 11.464844 0.847656 11.082031 0.847656 10.667969 L 0.847656 4.324219 C 0.847656 3.914062 1.070312 3.527344 1.425781 3.324219 L 6.921875 0.148438 C 7.269531 -0.0507812 7.730469 -0.0507812 8.078125 0.148438 L 13.574219 3.324219 C 13.929688 3.53125 14.152344 3.914062 14.152344 4.324219 L 14.152344 10.667969 C 14.152344 11.082031 13.929688 11.464844 13.574219 11.671875 L 8.078125 14.84375 C 7.902344 14.949219 7.703125 15 7.5 15 Z M 11.9375 8.746094 C 11.9375 7.558594 11.132812 7.242188 9.445312 7.019531 C 7.738281 6.792969 7.5625 6.675781 7.5625 6.277344 C 7.5625 5.945312 7.710938 5.507812 8.976562 5.507812 C 10.105469 5.507812 10.519531 5.75 10.691406 6.511719 C 10.707031 6.582031 10.773438 6.636719 10.847656 6.636719 L 11.558594 6.636719 C 11.605469 6.636719 11.644531 6.617188 11.675781 6.585938 C 11.707031 6.550781 11.722656 6.507812 11.71875 6.460938 C 11.609375 5.152344 10.734375 4.539062 8.976562 4.539062 C 7.40625 4.539062 6.472656 5.199219 6.472656 6.308594 C 6.472656 7.511719 7.402344 7.84375 8.90625 7.996094 C 10.707031 8.171875 10.847656 8.433594 10.847656 8.789062 C 10.847656 9.402344 10.355469 9.664062 9.195312 9.664062 C 7.742188 9.664062 7.421875 9.296875 7.3125 8.574219 C 7.300781 8.496094 7.234375 8.441406 7.15625 8.441406 L 6.445312 8.441406 C 6.355469 8.441406 6.285156 8.511719 6.285156 8.597656 C 6.285156 9.523438 6.789062 10.628906 9.195312 10.628906 C 10.9375 10.628906 11.9375 9.945312 11.9375 8.746094 Z M 11.9375 8.746094 "/>
</g>
</svg>
