<?xml version="1.0" encoding="UTF-8"?>
<svg xmlns="http://www.w3.org/2000/svg" xmlns:xlink="http://www.w3.org/1999/xlink" width="15pt" height="15pt" viewBox="0 0 15 15" version="1.1">
<g id="surface1">
<path style=" stroke:none;fill-rule:nonzero;fill:rgb(0%,0%,0%);fill-opacity:1;" d="M 8.90625 0.113281 L 9.46875 0.238281 L 9.925781 0.398438 L 10.292969 0.585938 L 10.574219 0.789062 L 10.789062 1 L 10.945312 1.210938 L 11.042969 1.417969 L 11.105469 1.605469 L 11.132812 1.769531 L 11.144531 1.894531 L 11.136719 1.976562 L 11.136719 5.3125 L 11.105469 5.707031 L 11.023438 6.050781 L 10.894531 6.335938 L 10.730469 6.574219 L 10.542969 6.769531 L 10.335938 6.925781 L 10.117188 7.042969 L 9.898438 7.132812 L 9.695312 7.195312 L 9.507812 7.238281 L 9.34375 7.261719 L 9.210938 7.273438 L 5.480469 7.273438 L 5.050781 7.304688 L 4.679688 7.394531 L 4.367188 7.53125 L 4.113281 7.699219 L 3.90625 7.898438 L 3.738281 8.117188 L 3.613281 8.34375 L 3.519531 8.574219 L 3.457031 8.792969 L 3.414062 8.992188 L 3.386719 9.164062 L 3.375 9.292969 L 3.375 11.207031 L 1.980469 11.207031 L 1.851562 11.1875 L 1.675781 11.144531 L 1.476562 11.070312 L 1.257812 10.957031 L 1.03125 10.792969 L 0.804688 10.570312 L 0.585938 10.28125 L 0.386719 9.914062 L 0.210938 9.457031 L 0.0820312 8.90625 L -0.0078125 8.25 L -0.0390625 7.480469 L 0 6.71875 L 0.101562 6.070312 L 0.25 5.523438 L 0.449219 5.082031 L 0.675781 4.726562 L 0.925781 4.449219 L 1.1875 4.242188 L 1.449219 4.09375 L 1.699219 3.992188 L 1.925781 3.929688 L 2.125 3.898438 L 2.273438 3.894531 L 2.375 3.894531 L 2.414062 3.898438 L 7.511719 3.898438 L 7.511719 3.382812 L 3.863281 3.382812 L 3.855469 1.664062 L 3.84375 1.429688 L 3.875 1.21875 L 3.945312 1.023438 L 4.050781 0.851562 L 4.207031 0.6875 L 4.398438 0.542969 L 4.636719 0.417969 L 4.914062 0.304688 L 5.230469 0.210938 L 5.59375 0.136719 L 5.992188 0.0742188 L 6.4375 0.0390625 L 6.917969 0.0117188 L 7.445312 0 L 8.238281 0.03125 Z M 4.96875 1.351562 L 4.824219 1.554688 L 4.773438 1.8125 L 4.824219 2.070312 L 4.96875 2.28125 L 5.175781 2.417969 L 5.429688 2.476562 L 5.6875 2.417969 L 5.894531 2.28125 L 6.039062 2.070312 L 6.085938 1.8125 L 6.039062 1.554688 L 5.894531 1.351562 L 5.6875 1.210938 L 5.429688 1.15625 L 5.175781 1.210938 Z M 13.148438 3.820312 L 13.324219 3.855469 L 13.523438 3.929688 L 13.742188 4.042969 L 13.96875 4.210938 L 14.195312 4.429688 L 14.414062 4.726562 L 14.613281 5.09375 L 14.789062 5.550781 L 14.917969 6.101562 L 15.007812 6.75 L 15.039062 7.519531 L 15 8.289062 L 14.898438 8.9375 L 14.75 9.476562 L 14.550781 9.917969 L 14.324219 10.273438 L 14.074219 10.554688 L 13.8125 10.761719 L 13.550781 10.914062 L 13.300781 11.011719 L 13.074219 11.070312 L 12.875 11.101562 L 12.726562 11.113281 L 12.625 11.105469 L 7.488281 11.105469 L 7.488281 11.617188 L 11.136719 11.617188 L 11.144531 13.34375 L 11.15625 13.570312 L 11.125 13.78125 L 11.054688 13.976562 L 10.949219 14.15625 L 10.792969 14.3125 L 10.601562 14.460938 L 10.363281 14.585938 L 10.085938 14.695312 L 9.769531 14.789062 L 9.40625 14.867188 L 9.007812 14.925781 L 8.5625 14.96875 L 8.082031 14.992188 L 7.554688 15 L 6.761719 14.976562 L 6.09375 14.886719 L 5.53125 14.761719 L 5.074219 14.605469 L 4.707031 14.417969 L 4.425781 14.210938 L 4.210938 14 L 4.054688 13.789062 L 3.957031 13.582031 L 3.894531 13.394531 L 3.867188 13.238281 L 3.855469 13.113281 L 3.863281 13.03125 L 3.863281 9.695312 L 3.894531 9.292969 L 3.976562 8.957031 L 4.105469 8.667969 L 4.269531 8.429688 L 4.457031 8.230469 L 4.664062 8.082031 L 4.882812 7.957031 L 5.101562 7.867188 L 5.304688 7.804688 L 5.492188 7.769531 L 5.65625 7.742188 L 5.789062 7.730469 L 5.867188 7.726562 L 9.519531 7.726562 L 9.949219 7.695312 L 10.320312 7.605469 L 10.632812 7.476562 L 10.886719 7.300781 L 11.09375 7.101562 L 11.261719 6.882812 L 11.386719 6.65625 L 11.480469 6.429688 L 11.542969 6.210938 L 11.585938 6.011719 L 11.613281 5.835938 L 11.625 5.707031 L 11.625 3.792969 L 12.929688 3.792969 L 13.019531 3.800781 Z M 9.105469 12.726562 L 8.960938 12.929688 L 8.914062 13.1875 L 8.960938 13.445312 L 9.105469 13.648438 L 9.3125 13.792969 L 9.570312 13.84375 L 9.824219 13.792969 L 10.03125 13.648438 L 10.175781 13.445312 L 10.226562 13.1875 L 10.175781 12.929688 L 10.03125 12.726562 L 9.824219 12.582031 L 9.570312 12.53125 L 9.3125 12.582031 Z M 9.105469 12.726562 "/>
</g>
</svg>
