<?xml version="1.0" encoding="UTF-8"?>
<svg xmlns="http://www.w3.org/2000/svg" xmlns:xlink="http://www.w3.org/1999/xlink" width="15pt" height="15pt" viewBox="0 0 15 15" version="1.1">
<g id="surface1">
<path style=" stroke:none;fill-rule:nonzero;fill:rgb(0%,0%,0%);fill-opacity:1;" d="M 8.894531 7.503906 C 8.894531 8.273438 8.269531 8.898438 7.496094 8.898438 C 6.726562 8.898438 6.097656 8.273438 6.097656 7.503906 C 6.097656 6.730469 6.726562 6.105469 7.496094 6.105469 C 8.269531 6.105469 8.894531 6.730469 8.894531 7.503906 Z M 10.546875 0.820312 C 9.707031 0.820312 8.605469 1.421875 7.492188 2.460938 C 6.382812 1.425781 5.28125 0.832031 4.4375 0.832031 C 4.183594 0.832031 3.949219 0.890625 3.75 1.007812 C 2.890625 1.503906 2.695312 3.046875 3.140625 4.984375 C 1.238281 5.574219 0 6.511719 0 7.503906 C 0 8.496094 1.242188 9.4375 3.152344 10.019531 C 2.710938 11.96875 2.90625 13.515625 3.769531 14.007812 C 3.96875 14.125 4.199219 14.179688 4.457031 14.179688 C 5.296875 14.179688 6.398438 13.582031 7.511719 12.539062 C 8.625 13.574219 9.726562 14.167969 10.566406 14.167969 C 10.824219 14.167969 11.058594 14.109375 11.257812 13.996094 C 12.117188 13.5 12.3125 11.957031 11.867188 10.015625 C 13.761719 9.433594 15 8.492188 15 7.503906 C 15 6.507812 13.757812 5.566406 11.847656 4.984375 C 12.289062 3.039062 12.09375 1.492188 11.230469 0.996094 C 11.03125 0.878906 10.800781 0.820312 10.546875 0.820312 Z M 10.546875 1.503906 L 10.546875 1.507812 C 10.6875 1.507812 10.800781 1.535156 10.894531 1.585938 C 11.3125 1.824219 11.492188 2.734375 11.351562 3.902344 C 11.316406 4.1875 11.261719 4.492188 11.195312 4.800781 C 10.59375 4.652344 9.941406 4.539062 9.253906 4.46875 C 8.839844 3.902344 8.410156 3.386719 7.980469 2.9375 C 8.976562 2.011719 9.910156 1.503906 10.546875 1.503906 Z M 4.4375 1.515625 C 5.070312 1.515625 6.011719 2.019531 7.007812 2.941406 C 6.578125 3.390625 6.152344 3.902344 5.746094 4.464844 C 5.054688 4.539062 4.398438 4.652344 3.800781 4.800781 C 3.730469 4.496094 3.679688 4.199219 3.640625 3.914062 C 3.496094 2.746094 3.675781 1.839844 4.085938 1.597656 C 4.207031 1.542969 4.335938 1.519531 4.4375 1.515625 Z M 7.492188 3.421875 C 7.773438 3.714844 8.058594 4.042969 8.339844 4.398438 C 8.066406 4.386719 7.785156 4.378906 7.5 4.378906 C 7.210938 4.378906 6.929688 4.382812 6.648438 4.398438 C 6.925781 4.042969 7.210938 3.714844 7.492188 3.421875 Z M 7.5 5.0625 C 7.960938 5.0625 8.421875 5.082031 8.875 5.121094 C 9.128906 5.484375 9.378906 5.871094 9.617188 6.28125 C 9.847656 6.683594 10.058594 7.089844 10.25 7.5 C 10.058594 7.910156 9.847656 8.316406 9.617188 8.71875 C 9.382812 9.128906 9.136719 9.523438 8.882812 9.886719 C 8.425781 9.925781 7.964844 9.949219 7.5 9.949219 C 7.039062 9.949219 6.578125 9.925781 6.125 9.890625 C 5.871094 9.527344 5.621094 9.136719 5.382812 8.726562 C 5.152344 8.328125 4.941406 7.921875 4.75 7.511719 C 4.9375 7.101562 5.152344 6.691406 5.382812 6.289062 C 5.617188 5.878906 5.863281 5.484375 6.117188 5.121094 C 6.574219 5.082031 7.035156 5.0625 7.5 5.0625 Z M 5.226562 5.222656 C 5.078125 5.457031 4.929688 5.699219 4.789062 5.945312 C 4.648438 6.191406 4.515625 6.433594 4.390625 6.679688 C 4.226562 6.269531 4.085938 5.859375 3.96875 5.464844 C 4.367188 5.371094 4.789062 5.285156 5.226562 5.222656 Z M 9.765625 5.222656 C 10.199219 5.285156 10.617188 5.363281 11.019531 5.464844 C 10.90625 5.859375 10.765625 6.265625 10.605469 6.671875 C 10.480469 6.425781 10.351562 6.183594 10.207031 5.9375 C 10.066406 5.691406 9.917969 5.453125 9.765625 5.222656 Z M 11.679688 5.644531 C 11.984375 5.738281 12.269531 5.839844 12.539062 5.953125 C 13.621094 6.417969 14.320312 7.023438 14.320312 7.5 C 14.320312 7.980469 13.617188 8.589844 12.535156 9.046875 C 12.273438 9.160156 11.984375 9.261719 11.6875 9.355469 C 11.515625 8.757812 11.285156 8.132812 11 7.496094 C 11.28125 6.859375 11.507812 6.238281 11.679688 5.640625 Z M 3.308594 5.644531 C 3.480469 6.246094 3.710938 6.867188 3.996094 7.507812 C 3.714844 8.144531 3.488281 8.765625 3.316406 9.359375 C 3.015625 9.265625 2.726562 9.160156 2.460938 9.046875 C 1.378906 8.585938 0.679688 7.980469 0.679688 7.5 C 0.679688 7.023438 1.378906 6.414062 2.460938 5.953125 C 2.722656 5.84375 3.011719 5.742188 3.308594 5.644531 Z M 10.605469 8.320312 C 10.773438 8.730469 10.914062 9.140625 11.03125 9.539062 C 10.628906 9.636719 10.207031 9.71875 9.769531 9.78125 C 9.917969 9.546875 10.070312 9.304688 10.210938 9.058594 C 10.351562 8.8125 10.480469 8.566406 10.609375 8.320312 Z M 4.390625 8.332031 C 4.515625 8.578125 4.648438 8.824219 4.792969 9.066406 C 4.933594 9.3125 5.082031 9.550781 5.230469 9.78125 C 4.796875 9.71875 4.378906 9.636719 3.976562 9.539062 C 4.089844 9.148438 4.230469 8.738281 4.390625 8.332031 Z M 11.199219 10.199219 C 11.269531 10.507812 11.324219 10.804688 11.359375 11.089844 C 11.503906 12.257812 11.324219 13.164062 10.914062 13.40625 C 10.820312 13.464844 10.703125 13.488281 10.5625 13.488281 C 9.929688 13.488281 8.988281 12.984375 7.992188 12.0625 C 8.421875 11.613281 8.847656 11.101562 9.253906 10.535156 C 9.945312 10.464844 10.601562 10.347656 11.199219 10.199219 Z M 3.804688 10.207031 C 4.40625 10.351562 5.058594 10.464844 5.75 10.539062 C 6.160156 11.105469 6.589844 11.617188 7.019531 12.066406 C 6.023438 12.996094 5.085938 13.5 4.453125 13.5 C 4.3125 13.5 4.199219 13.46875 4.105469 13.417969 C 3.6875 13.183594 3.507812 12.273438 3.648438 11.105469 C 3.683594 10.816406 3.738281 10.515625 3.804688 10.207031 Z M 6.65625 10.605469 C 6.929688 10.617188 7.210938 10.628906 7.496094 10.628906 C 7.785156 10.628906 8.070312 10.621094 8.347656 10.605469 C 8.070312 10.964844 7.789062 11.289062 7.507812 11.585938 C 7.222656 11.289062 6.9375 10.964844 6.65625 10.605469 Z M 6.65625 10.605469 "/>
</g>
</svg>
