<?xml version="1.0" encoding="UTF-8"?>
<svg xmlns="http://www.w3.org/2000/svg" xmlns:xlink="http://www.w3.org/1999/xlink" width="15pt" height="15pt" viewBox="0 0 15 15" version="1.1">
<g id="surface1">
<path style=" stroke:none;fill-rule:nonzero;fill:rgb(0%,0%,0%);fill-opacity:1;" d="M 7.5 0 C 11.640625 0 15 3.359375 15 7.5 C 15 11.640625 11.640625 15 7.5 15 C 3.359375 15 0 11.640625 0 7.5 C 0 3.359375 3.359375 0 7.5 0 Z M 6.007812 10 C 6.117188 10.402344 6.105469 10.777344 5.996094 11.117188 L 5.953125 11.230469 C 5.9375 11.269531 5.921875 11.304688 5.90625 11.339844 C 5.816406 11.523438 5.703125 11.691406 5.558594 11.847656 C 5.121094 12.320312 4.511719 12.5 4.25 12.351562 C 3.96875 12.1875 4.109375 11.515625 4.617188 10.980469 C 5.160156 10.40625 5.941406 10.039062 5.941406 10.039062 L 5.941406 10.035156 Z M 12.203125 3.210938 C 11.863281 1.878906 9.65625 1.4375 7.566406 2.183594 C 6.320312 2.625 4.976562 3.320312 4.007812 4.222656 C 2.855469 5.300781 2.671875 6.238281 2.746094 6.628906 C 3.015625 8.011719 4.90625 8.914062 5.6875 9.585938 L 5.6875 9.589844 C 5.457031 9.703125 3.777344 10.546875 3.382812 11.417969 C 2.960938 12.335938 3.449219 12.992188 3.765625 13.078125 C 4.75 13.347656 5.765625 12.851562 6.308594 12.046875 C 6.832031 11.257812 6.785156 10.246094 6.5625 9.75 C 6.871094 9.664062 7.234375 9.625 7.703125 9.683594 C 9.015625 9.832031 9.28125 10.660156 9.222656 10.996094 C 9.167969 11.332031 8.894531 11.53125 8.800781 11.585938 C 8.707031 11.644531 8.679688 11.660156 8.6875 11.699219 C 8.699219 11.753906 8.746094 11.753906 8.820312 11.746094 C 8.921875 11.726562 9.503906 11.464844 9.53125 10.828125 C 9.5625 10.019531 8.792969 9.121094 7.421875 9.140625 C 6.859375 9.148438 6.503906 9.195312 6.25 9.300781 C 6.234375 9.269531 6.214844 9.253906 6.1875 9.234375 C 5.34375 8.324219 3.777344 7.6875 3.84375 6.476562 C 3.859375 6.035156 4.019531 4.875 6.84375 3.46875 C 9.15625 2.316406 11.003906 2.632812 11.324219 3.335938 C 11.78125 4.339844 10.339844 6.207031 7.929688 6.476562 C 7.011719 6.582031 6.53125 6.226562 6.410156 6.09375 C 6.28125 5.953125 6.261719 5.941406 6.214844 5.972656 C 6.140625 6.007812 6.1875 6.132812 6.214844 6.207031 C 6.289062 6.394531 6.578125 6.722656 7.085938 6.890625 C 7.527344 7.03125 8.605469 7.113281 9.898438 6.609375 C 11.351562 6.046875 12.484375 4.480469 12.15625 3.167969 Z M 12.203125 3.210938 "/>
</g>
</svg>
