<?xml version="1.0" encoding="UTF-8"?>
<svg xmlns="http://www.w3.org/2000/svg" xmlns:xlink="http://www.w3.org/1999/xlink" width="15pt" height="15pt" viewBox="0 0 15 15" version="1.1">
<g id="surface1">
<path style=" stroke:none;fill-rule:nonzero;fill:rgb(0%,0%,0%);fill-opacity:1;" d="M 7.5 0 C 11.640625 0 15 3.359375 15 7.5 C 15 11.640625 11.640625 15 7.5 15 C 3.359375 15 0 11.640625 0 7.5 C 0 3.359375 3.359375 0 7.5 0 Z M 9.550781 11.050781 C 9.070312 11.324219 8.90625 11.9375 9.183594 12.417969 C 9.457031 12.894531 10.070312 13.0625 10.550781 12.78125 C 11.03125 12.507812 11.195312 11.894531 10.917969 11.414062 C 10.640625 10.9375 10.027344 10.773438 9.550781 11.050781 Z M 7.5 10.425781 C 7.058594 10.425781 6.640625 10.328125 6.269531 10.152344 L 5.574219 11.398438 C 6.152344 11.6875 6.808594 11.851562 7.5 11.851562 C 7.902344 11.851562 8.292969 11.792969 8.664062 11.691406 C 8.726562 11.289062 8.964844 10.917969 9.347656 10.699219 C 9.726562 10.480469 10.167969 10.457031 10.546875 10.601562 C 11.289062 9.875 11.769531 8.882812 11.839844 7.78125 L 10.414062 7.757812 C 10.28125 9.253906 9.027344 10.425781 7.5 10.425781 Z M 4.574219 7.5 C 4.574219 6.511719 5.066406 5.636719 5.820312 5.105469 L 5.085938 3.878906 C 4.210938 4.460938 3.558594 5.359375 3.285156 6.402344 C 3.601562 6.65625 3.804688 7.046875 3.804688 7.488281 C 3.804688 7.929688 3.601562 8.3125 3.285156 8.578125 C 3.558594 9.617188 4.210938 10.515625 5.085938 11.097656 L 5.820312 9.871094 C 5.066406 9.355469 4.574219 8.484375 4.574219 7.5 Z M 2.398438 6.5 C 1.847656 6.5 1.398438 6.945312 1.398438 7.5 C 1.398438 8.054688 1.847656 8.5 2.398438 8.5 C 2.953125 8.5 3.402344 8.054688 3.402344 7.5 C 3.402344 6.945312 2.953125 6.5 2.398438 6.5 Z M 7.5 4.574219 C 9.027344 4.574219 10.28125 5.746094 10.414062 7.242188 L 11.839844 7.21875 C 11.769531 6.117188 11.289062 5.125 10.546875 4.398438 C 10.167969 4.542969 9.726562 4.519531 9.347656 4.300781 C 8.964844 4.082031 8.726562 3.710938 8.664062 3.304688 C 8.292969 3.207031 7.902344 3.148438 7.5 3.148438 C 6.804688 3.148438 6.152344 3.3125 5.574219 3.601562 L 6.269531 4.847656 C 6.644531 4.671875 7.0625 4.574219 7.5 4.574219 Z M 9.550781 3.949219 C 10.027344 4.226562 10.640625 4.0625 10.917969 3.582031 C 11.191406 3.105469 11.03125 2.492188 10.550781 2.214844 C 10.070312 1.941406 9.457031 2.101562 9.183594 2.582031 C 8.90625 3.0625 9.070312 3.671875 9.550781 3.949219 Z M 9.550781 3.949219 "/>
</g>
</svg>
