<?xml version="1.0" encoding="UTF-8"?>
<svg xmlns="http://www.w3.org/2000/svg" xmlns:xlink="http://www.w3.org/1999/xlink" width="15pt" height="15pt" viewBox="0 0 15 15" version="1.1">
<g id="surface1">
<path style=" stroke:none;fill-rule:nonzero;fill:rgb(0%,0%,0%);fill-opacity:1;" d="M 14.46875 1.617188 L 11.382812 0.132812 C 11.023438 -0.0390625 10.597656 0.03125 10.316406 0.3125 L 4.402344 5.707031 L 1.828125 3.75 C 1.589844 3.570312 1.253906 3.585938 1.03125 3.785156 L 0.203125 4.539062 C 0.0742188 4.65625 0 4.824219 0 5 C 0 5.175781 0.0742188 5.34375 0.203125 5.460938 L 2.4375 7.5 L 0.203125 9.539062 C 0.0742188 9.65625 0 9.824219 0 10 C 0 10.175781 0.0742188 10.34375 0.203125 10.460938 L 1.03125 11.210938 C 1.253906 11.414062 1.589844 11.429688 1.828125 11.25 L 4.402344 9.292969 L 10.316406 14.6875 C 10.597656 14.96875 11.023438 15.039062 11.382812 14.867188 L 14.46875 13.382812 C 14.792969 13.226562 15 12.898438 15 12.539062 L 15 2.460938 C 15 2.101562 14.792969 1.773438 14.46875 1.617188 Z M 11.253906 10.90625 L 6.765625 7.5 L 11.253906 4.09375 Z M 11.253906 10.90625 "/>
</g>
</svg>
