<?xml version="1.0" encoding="UTF-8"?>
<svg xmlns="http://www.w3.org/2000/svg" xmlns:xlink="http://www.w3.org/1999/xlink" width="15pt" height="15pt" viewBox="0 0 15 15" version="1.1">
<g id="surface1">
<path style=" stroke:none;fill-rule:nonzero;fill:rgb(0%,0%,0%);fill-opacity:1;" d="M 0.3125 6.3125 C 0.375 6.402344 0.386719 6.523438 0.34375 6.625 L 1.054688 8.171875 C 1.164062 8.40625 1.292969 8.539062 1.503906 8.539062 C 1.71875 8.539062 1.84375 8.402344 1.953125 8.171875 L 2.582031 6.804688 C 2.585938 6.757812 2.628906 6.722656 2.675781 6.722656 C 2.722656 6.726562 2.757812 6.765625 2.761719 6.8125 C 2.761719 6.859375 2.726562 6.898438 2.679688 6.902344 L 2.679688 8.226562 C 3.046875 8.226562 3.34375 7.929688 3.34375 7.566406 C 3.34375 7.199219 3.046875 6.902344 2.679688 6.902344 L 2.679688 5.824219 C 2.679688 5.6875 2.757812 5.5625 2.882812 5.511719 C 3.007812 5.457031 3.152344 5.484375 3.246094 5.582031 C 3.34375 5.675781 3.371094 5.820312 3.316406 5.945312 C 3.265625 6.070312 3.140625 6.148438 3.007812 6.148438 L 3.007812 7.230469 C 3.007812 7.046875 3.15625 6.902344 3.339844 6.902344 C 3.523438 6.902344 3.667969 7.050781 3.671875 7.230469 C 3.671875 7.414062 3.523438 7.5625 3.34375 7.566406 L 3.34375 6.484375 C 3.339844 6.347656 3.421875 6.226562 3.542969 6.171875 C 3.667969 6.121094 3.8125 6.148438 3.910156 6.242188 C 4.003906 6.339844 4.035156 6.484375 3.980469 6.609375 C 3.925781 6.730469 3.804688 6.8125 3.667969 6.808594 L 3.667969 7.890625 C 3.667969 7.707031 3.816406 7.5625 4 7.5625 C 4.183594 7.5625 4.332031 7.710938 4.332031 7.890625 C 4.332031 8.074219 4.183594 8.222656 4.003906 8.226562 L 4.003906 6.996094 C 4.089844 7.238281 4.046875 7.507812 3.894531 7.714844 C 3.738281 7.921875 3.492188 8.039062 3.234375 8.023438 L 4.019531 8.8125 L 5.152344 8.8125 C 5.546875 8.816406 5.871094 8.660156 5.871094 8.460938 C 5.871094 8.261719 5.546875 8.09375 5.152344 8.085938 L 4.695312 9.160156 L 4.113281 7.78125 L 4.117188 7.78125 C 4.203125 7.496094 4.503906 7.332031 4.789062 7.417969 C 5.074219 7.503906 5.234375 7.800781 5.152344 8.085938 Z M 11.832031 6.351562 C 12.3125 6.300781 12.738281 6.652344 12.785156 7.132812 C 12.832031 7.613281 12.480469 8.039062 12.003906 8.085938 L 12.003906 10.050781 C 12.546875 10.050781 12.984375 9.609375 12.984375 9.070312 C 12.984375 8.527344 12.542969 8.085938 12.003906 8.085938 L 12.003906 7.324219 C 12.003906 6.675781 12.359375 6.347656 12.796875 6.296875 C 12.792969 6.230469 12.832031 6.167969 12.898438 6.140625 C 12.960938 6.113281 13.03125 6.125 13.078125 6.175781 C 13.128906 6.222656 13.140625 6.296875 13.113281 6.359375 C 13.089844 6.421875 13.027344 6.460938 12.957031 6.457031 L 13.875 6.457031 L 13.875 6.074219 C 13.980469 6.121094 14.027344 6.246094 13.980469 6.351562 C 13.933594 6.457031 13.808594 6.503906 13.703125 6.457031 Z M 7.621094 6.355469 C 7.683594 6.363281 7.734375 6.402344 7.757812 6.457031 L 7.1875 8.101562 L 6.625 6.460938 C 6.621094 6.542969 6.566406 6.613281 6.484375 6.628906 L 6.792969 6.9375 L 7.476562 8.835938 L 7.488281 8.832031 C 7.484375 8.746094 7.53125 8.671875 7.605469 8.636719 C 7.679688 8.601562 7.769531 8.621094 7.828125 8.679688 C 7.886719 8.738281 7.902344 8.824219 7.867188 8.902344 C 7.835938 8.976562 7.757812 9.023438 7.675781 9.019531 L 8.238281 7.402344 L 8.800781 9.019531 C 8.800781 9.328125 8.546875 9.582031 8.238281 9.582031 C 7.925781 9.582031 7.675781 9.328125 7.675781 9.019531 L 7.6875 9.019531 C 7.796875 9.019531 7.882812 9.109375 7.878906 9.21875 C 7.878906 9.328125 7.789062 9.417969 7.679688 9.417969 C 7.570312 9.417969 7.484375 9.328125 7.480469 9.21875 C 7.480469 9.109375 7.566406 9.019531 7.675781 9.019531 L 8.359375 7.121094 C 8.296875 6.976562 8.34375 6.8125 8.472656 6.726562 C 8.597656 6.636719 8.769531 6.652344 8.878906 6.761719 C 8.988281 6.871094 9.003906 7.042969 8.917969 7.171875 C 8.828125 7.296875 8.664062 7.34375 8.523438 7.28125 L 8.6875 7.28125 L 8.113281 8.925781 L 7.546875 7.28125 C 7.503906 7.300781 7.453125 7.300781 7.410156 7.28125 L 7.394531 7.28125 Z M 13.976562 6.359375 C 14.28125 6.34375 14.574219 6.453125 14.792969 6.660156 C 15.015625 6.871094 15.136719 7.160156 15.132812 7.464844 L 15.128906 7.472656 C 14.746094 7.011719 14.792969 6.335938 15.234375 5.933594 C 15.671875 5.53125 16.351562 5.546875 16.773438 5.96875 C 17.195312 6.390625 17.210938 7.070312 16.808594 7.507812 C 16.40625 7.949219 15.730469 7.996094 15.269531 7.613281 C 15.675781 7.699219 16.144531 7.625 16.316406 7.449219 C 16.488281 7.273438 16.300781 7.0625 15.894531 6.976562 C 15.8125 7.628906 15.574219 7.984375 15.359375 7.777344 C 15.144531 7.566406 15.039062 6.871094 15.121094 6.222656 L 16.71875 6.222656 C 16.71875 6.664062 16.359375 7.023438 15.917969 7.023438 C 15.480469 7.023438 15.121094 6.664062 15.121094 6.222656 C 15.121094 5.632812 14.75 5.09375 14.097656 5.09375 Z M 10.386719 6.359375 C 10.605469 6.546875 10.730469 6.820312 10.730469 7.105469 C 10.730469 7.390625 10.609375 7.664062 10.390625 7.851562 L 10.527344 7.988281 L 10.679688 7.988281 C 10.609375 8.023438 10.578125 8.097656 10.605469 8.167969 C 10.632812 8.234375 10.707031 8.273438 10.78125 8.253906 C 10.855469 8.238281 10.898438 8.167969 10.890625 8.09375 C 10.878906 8.023438 10.8125 7.96875 10.738281 7.972656 C 11.167969 7.972656 11.40625 8.183594 11.40625 8.585938 L 11.40625 8.664062 C 11.339844 8.441406 11.308594 8.207031 11.3125 7.972656 C 10.753906 7.972656 10.363281 8.222656 10.363281 8.699219 L 10.359375 8.695312 C 10.359375 9.15625 10.78125 9.394531 11.199219 9.394531 C 10.804688 9.890625 10.085938 9.976562 9.585938 9.585938 C 9.085938 9.195312 9.003906 8.472656 9.394531 7.972656 L 9.394531 8.1875 C 9.398438 8.105469 9.464844 8.039062 9.550781 8.039062 C 9.632812 8.039062 9.703125 8.105469 9.703125 8.191406 C 9.703125 8.273438 9.636719 8.34375 9.554688 8.347656 L 9.554688 7.109375 C 9.617188 7.554688 9.335938 7.976562 8.898438 8.089844 Z M 13.960938 6.628906 C 14.40625 6.628906 14.640625 6.984375 14.671875 7.390625 L 13.25 7.390625 C 13.441406 9.007812 12.289062 10.476562 10.667969 10.667969 C 9.050781 10.863281 7.582031 9.707031 7.390625 8.089844 Z M 10.28125 7.492188 C 11.164062 7.949219 11.660156 8.914062 11.523438 9.894531 C 11.386719 10.878906 10.648438 11.667969 9.675781 11.871094 C 8.703125 12.070312 7.710938 11.636719 7.195312 10.785156 C 6.683594 9.9375 6.761719 8.855469 7.390625 8.089844 L 7.390625 7.804688 C 7.390625 8.164062 7.050781 8.414062 6.640625 8.414062 C 6.335938 8.414062 6.074219 8.25 6.074219 7.96875 C 6.074219 7.675781 6.308594 7.492188 6.726562 7.492188 Z M 10.28125 7.492188 "/>
</g>
</svg>
